<?xml version="1.0" encoding="UTF-8" standalone="no"?>
<svg
   xmlns:dc="http://purl.org/dc/elements/1.1/"
   xmlns:cc="http://creativecommons.org/ns#"
   xmlns:rdf="http://www.w3.org/1999/02/22-rdf-syntax-ns#"
   xmlns:svg="http://www.w3.org/2000/svg"
   xmlns="http://www.w3.org/2000/svg"
   xmlns:sodipodi="http://sodipodi.sourceforge.net/DTD/sodipodi-0.dtd"
   xmlns:inkscape="http://www.inkscape.org/namespaces/inkscape"
   sodipodi:docname="Flag_of_Belarus_(w-r-w)_with_Arms_(2020).svg"
   inkscape:version="1.0 (4035a4fb49, 2020-05-01)"
   version="1.1"
   id="svg2"
   height="500"
   width="1000"
   viewBox="0 0 6 3">
  <metadata
     id="metadata12">
    <rdf:RDF>
      <cc:Work
         rdf:about="">
        <dc:format>image/svg+xml</dc:format>
        <dc:type
           rdf:resource="http://purl.org/dc/dcmitype/StillImage" />
        <dc:title />
      </cc:Work>
    </rdf:RDF>
  </metadata>
  <defs
     id="defs10" />
  <sodipodi:namedview
     inkscape:document-rotation="0"
     inkscape:current-layer="svg2"
     inkscape:window-maximized="1"
     inkscape:window-y="-8"
     inkscape:window-x="-8"
     inkscape:cy="240.94372"
     inkscape:cx="540.57417"
     inkscape:zoom="0.97470286"
     showgrid="false"
     id="namedview8"
     inkscape:window-height="705"
     inkscape:window-width="1366"
     inkscape:pageshadow="2"
     inkscape:pageopacity="0"
     guidetolerance="10"
     gridtolerance="10"
     objecttolerance="10"
     borderopacity="1"
     bordercolor="#666666"
     pagecolor="#ffffff" />
  <rect
     id="rect4"
     style="fill:#fff;stroke:none"
     height="3"
     width="6" />
  <path
     transform="scale(0.006)"
     d="M 0 166.66602 L 0 333.33398 L 349.11133 333.33398 C 341.57341 314.53012 336.92028 294.68331 335.28711 274.41406 C 334.81378 268.53663 334.74807 262.84832 334.63477 257.16016 L 334.63477 256.83594 L 334.63477 166.66602 L 0 166.66602 z M 665.36523 166.66602 L 665.36523 257.16211 C 665.30908 259.94944 665.48473 262.6385 665.36523 265.625 C 664.4321 289.0292 659.53683 311.896 650.94727 333.33398 L 1000 333.33398 L 1000 166.66602 L 665.36523 166.66602 z "
     style="fill:#cc0000;stroke-width:166.667;stroke:none"
     id="rect6" />
  <g
     transform="matrix(0.00340993,0,0,0.00340993,2.0330358,0.35999941)"
     id="g3351">
    <path
       sodipodi:nodetypes="cccccccccc"
       inkscape:connector-curvature="0"
       d="M 565.84033,1.499802 V 346.54439 c -0.10121,5.02272 -0.10121,10.04947 -0.30061,15.07016 -2.92001,73.2599 -27.98958,142.90748 -73.3707,200.6833 C 438.61423,630.03617 364.00238,674.0238 283.572,702.2432 172.29423,665.85274 106.96703,610.23088 43.192893,513.9627 20.05548,471.47714 6.3805202,424.54433 2.4999935,376.38385 1.695346,366.39193 1.5050645,356.55651 1.3056739,346.54439 V 1.499802 Z"
       style="fill:#cc0000;fill-opacity:1;fill-rule:evenodd;stroke:none;stroke-width:3.00001;stroke-miterlimit:4;stroke-dasharray:none;stroke-opacity:1"
       id="path9" />
    <path
       inkscape:connector-curvature="0"
       d="m 465.26963,347.1373 c -24.24548,17.6585 -40.01761,-17.33742 -74.64995,-28.22954 -34.76928,-10.93578 -50.96874,-7.11699 -50.96874,-7.11699 l 1.42835,-14.92339 c 0,0 7.60571,4.14933 11.45756,4.60381 66.50595,-45.24351 46.12176,-106.40671 38.64355,-161.08562 -16.78969,2.66075 -41.4259,5.48323 -41.4259,5.48323 l 8.19947,-46.728514 -10.72094,-23.017802 c 0,0 -26.24045,1.196988 -34.75156,7.719031 -8.5123,6.523224 -12.99805,22.045095 -12.99805,22.045095 l 2.75165,3.95572 -6.69793,12.56365 1.93005,2.89449 0.26796,16.51935 -14.84192,4.26855 -35.31348,-18.94757 -0.12512,-5.55288 12.21304,-42.19438 10.72802,-10.123628 4.50228,21.635483 7.39086,0.368295 0.60321,-20.501052 177.81275,-4.890646 17.32561,-6.446495 -15.94329,-7.505366 -179.50435,-5.40887 -0.2349,-20.986224 -6.01091,0.446214 c 0,0 -4.02301,18.684326 -5.58122,24.528786 -2.72804,-18.702034 -10.52026,-7.92207 -10.52026,-7.92207 l -6.43469,-1.182822 -18.07757,11.055012 -9.78365,2.895669 c 0,0 -18.77169,-20.831584 -25.19812,4.095017 8.33406,23.05203 20.84812,4.97564 20.84812,4.97564 l 13.30615,-1.008112 2.35266,9.725812 -16.43674,26.769295 -8.55125,36.179932 -17.99257,-7.1524 0.49578,-14.90568 -8.81331,8.0956 -0.9125,-7.88548 -11.61218,9.72699 -22.32016,6.22222 -2.40577,10.65954 c 0,0 -37.70272,37.83613 -52.492709,79.33875 1.088385,6.36622 12.613219,15.62457 12.613219,15.62457 l 15.77921,-18.97944 4.38187,4.31222 -9.46965,12.47983 c 0,0 7.11227,4.97564 16.90538,0.99041 3.07627,-1.25129 1.99615,-8.82749 1.99615,-8.82749 l 7.37552,-5.64732 0.79563,20.79617 c 0,0 -14.09706,21.68034 -17.72344,37.79716 -14.50549,12.49045 -17.87453,28.51166 -20.29211,34.25342 -37.170334,-5.43956 -37.799518,-25.49794 -58.481184,-2.01858 -10.71858,33.22876 -17.38346,45.45008 -30.320124,59.10918 2.822481,22.67547 -16.7637174,44.44434 10.627684,65.88976 9.839137,-7.10401 11.347765,-11.17305 11.457549,-12.1552 -0.03305,-0.26442 0.03305,-0.29984 0,0 0.46156,3.60513 6.232831,32.61966 33.084762,31.59029 1.109633,-1.47675 11.344223,-38.27052 -13.284902,-45.37216 7.857145,-14.5055 -12.128049,-12.50581 29.313192,-46.23628 30.824183,28.52464 46.160723,29.72872 60.212923,36.07487 15.19842,7.18546 21.08538,11.55907 24.5217,-1.50036 5.17278,-0.36831 10.983,4.99098 10.983,4.99098 l -4.29096,8.2408 c 0,0 -7.11346,-0.22075 -9.61368,3.43277 -2.66784,3.90851 -1.03054,9.27016 -1.03054,9.27016 0,0 -12.32519,-0.43087 -21.80074,6.17971 -10.09058,7.04027 -14.76402,18.7103 -14.76402,18.7103 l 20.37711,-2.18149 24.17582,7.25275 2.99956,-3.69721 21.51743,4.58136 0.0201,-19.27573 7.02137,-1.48856 c 0,0 13.80667,121.89787 80.44484,130.5117 -25.43067,-54.21618 -35.19189,-90.63929 -35.19189,-90.63929 l 6.17971,0 c 0,0 15.53722,87.52524 69.18088,95.10261 -12.2095,-27.26155 -36.11618,-96.75997 -36.11618,-96.75997 l 6.07346,0.11332 c 0,0 24.64684,73.53087 37.07945,87.54883 26.09171,-34.91446 -9.99261,-112.30427 -9.99261,-112.30427 l 9.80609,-1.62432 c 0,0 0.56308,16.30453 31.80514,45.69917 32.9254,25.65613 50.81882,30.23277 0.65398,82.30524 -27.24385,5.3404 -33.14025,12.80681 -36.86459,29.68149 2.97593,7.87014 25.94651,7.9929 25.94651,7.9929 0,0 -4.02183,4.73364 2.71978,6.64836 13.98846,3.9746 44.41837,5.97903 43.7148,-20.51404 2.9547,-0.86529 4.42083,-3.65354 4.42083,-3.65354 0,0 7.70959,4.43973 19.93325,3.92032 11.80343,-81.87437 39.63278,-79.63149 35.56492,-97.06926 -0.58433,-2.50493 -40.12149,-31.11339 -40.12149,-31.11339 0,0 11.75266,-18.28769 15.1335,-17.94418 10.81538,52.42306 50.05978,12.70529 50.05978,12.70529 0,0 -23.27986,6.88445 -18.88382,-9.44249 3.60512,-13.38997 72.2725,-18.53914 78.79573,-82.74202 6.72272,-66.16362 -61.28478,-43.94499 -86.3672,-25.675 z M 49.386363,371.89154 c -0.762578,-15.99051 18.038614,-38.66951 18.038614,-38.66951 l 8.270305,2.44237 c 0,0 -19.566129,33.76824 -26.308919,36.22714 z M 153.8996,233.36098 l -0.28449,-17.8816 7.3283,-4.08322 14.85255,-0.98333 -21.89636,22.94815 z m 114.92253,-3.44457 -10.7469,-38.36733 -12.82453,-25.67265 18.84605,6.92575 12.89064,54.91621 -8.16526,2.19802 z m 126.1865,353.06506 c 0,0 20.41723,-32.6173 30.67781,-43.02188 -10.61353,45.8054 -30.67781,43.02188 -30.67781,43.02188 z m 66.97695,-178.66976 -7.2008,-36.57893 c 0,0 15.40146,10.31841 29.54692,0.37893 4.507,5.59066 9.28077,10.89448 9.28077,10.89448 l -31.62689,25.30552 z"
       style="fill:#ffffff"
       id="bielaje" />
    <path
       inkscape:connector-curvature="0"
       d="m 547.43557,340.70969 c -7.04381,-11.40325 -21.90935,-18.58516 -44.52343,-13.5989 -24.91715,5.49386 -40.25132,25.23942 -55.56072,22.85253 -12.83751,-2.00088 -33.68916,-27.48702 -65.72213,-36.04891 -10.62414,-2.839 -27.59916,-4.41137 -39.42502,-3.86719 0.61856,-3.23446 1.29851,-7.76742 1.56766,-10.3727 2.58639,1.1663 5.75592,2.64424 8.90775,3.91795 67.02654,-49.61356 47.36951,-98.36421 39.81221,-166.2761 -2.74693,0.5619 -27.41383,4.79267 -39.84172,6.88917 -5.49623,-13.75 20.03359,-40.72116 -4.51408,-69.108876 -30.05452,0.182972 -40.82859,5.282561 -48.94543,26.255796 -0.43323,1.12144 -1.23358,3.88254 -1.77306,5.70753 -0.65515,2.21691 1.0577,3.4257 3.93566,3.96871 -1.70458,2.56514 -4.79975,7.25511 -6.34143,9.95599 -1.16983,2.05873 -2.52501,4.72657 1.35399,5.25069 -0.48281,1.3906 -1.60424,4.92961 -1.5771,5.58712 0.0153,0.42969 0.0803,0.52295 2.11066,0.50524 0.27505,0.18652 0.35414,1.00575 0.42379,2.19684 0.0874,1.44488 -0.42142,3.5402 -0.52059,4.22132 -0.0991,0.641 -0.16879,2.04929 0.11097,2.61 -8.34822,0.80981 -13.97665,3.15184 -13.97665,3.15184 0,0 -11.78572,-8.91484 -31.5419,-16.03538 -1.30322,-3.4375 -3.4375,-6.15138 -3.4375,-6.15138 0,0 2.72451,-7.36135 3.73851,-13.68862 1.11201,-0.19242 2.71507,-0.40607 3.9333,-0.64099 -2.13072,-16.041277 5.22827,-27.405565 8.68583,-31.978668 0.97152,-0.596133 4.22959,-3.069198 5.23062,-4.542412 l 4.36298,22.872606 11.40797,0.05666 -0.0189,-21.550485 c 19.8577,-0.681124 171.32847,-4.941406 173.28331,-5.308529 4.39603,-0.823962 24.92896,-8.731866 24.92896,-8.731866 0,0 -19.89783,-8.118025 -25.25713,-8.87352 -3.58624,-0.505237 -155.22935,-3.517772 -172.97404,-3.981693 l -0.0189,-22.098218 -10.67137,-0.132212 c 0,0 -2.4884,12.190615 -3.66414,17.558168 -0.28331,-0.71772 -2.23461,-3.707826 -5.1657,-3.700742 -5.00042,0.0118 -5.57413,2.725681 -5.6119,2.895668 -0.36595,-0.245536 -1.31032,-2.15316 -5.34159,-0.925481 -3.70901,1.129701 -3.72435,2.687908 -3.72435,2.687908 0,0 -1.89227,-1.449605 -5.31444,1.146227 -2.37508,1.801383 -2.50611,3.149469 -2.50611,3.149469 0,0 -2.45182,-0.547734 -5.22472,1.319754 -1.11199,0.749593 -2.54625,2.365643 -2.88976,4.312222 l -11.17543,-0.05548 c -0.16762,-0.257341 -1.08484,-1.691601 -1.26898,-1.935955 -2.46599,-3.275778 -6.27652,-5.387621 -10.55922,-5.387621 -7.43101,0 -13.47614,6.329628 -13.47614,14.111223 0,7.779234 6.04513,14.108862 13.47614,14.108862 4.38187,0 8.27384,-2.208642 10.73509,-5.611908 0.18534,-0.25616 0.76849,-1.244206 0.9373,-1.51335 l 9.51451,-0.02951 c 0.006,1.889916 0.10505,4.965015 2.33495,7.087484 -3.47292,4.639208 -11.3702,16.747191 -19.01604,29.327359 0.66106,0.59141 1.52869,1.23594 2.53327,1.74708 -1.5712,2.453 -5.92473,11.86599 -5.92473,23.02133 -0.89243,3.23448 -1.34218,4.92371 -1.96547,7.4735 -4.92841,-2.61235 -10.17439,-5.36282 -15.5384,-6.96235 0.85465,-2.69735 1.44488,-6.88916 1.13443,-13.46315 -0.16054,-3.41035 -0.54774,-3.41389 -1.82382,-2.31253 -1.48856,1.28671 -4.79149,3.31592 -6.86556,5.29319 0.0567,-0.96325 -0.30219,-4.15522 -0.67994,-5.06181 -4.96737,1.32211 -10.87912,3.49417 -14.95879,11.80461 -9.82852,-0.18062 -19.86951,2.79533 -25.08243,7.17719 -0.2963,2.80595 0.39073,6.96354 0.3022,9.97253 -11.48352,9.44369 -48.300893,53.79122 -52.2153,80.60655 -0.33407,2.28891 3.995858,10.96176 9.50506,14.18324 3.27342,1.91353 7.85715,1.86276 10.27473,-4.73483 2.01741,-5.50449 5.12911,-9.61013 9.36813,-11.91203 l 1.78841,2.59347 c -3.84241,3.11642 -6.38157,5.4195 -7.68126,9.31856 -0.6044,1.81319 -0.64099,6.28122 4.02891,7.40385 5.23889,1.25836 11.80224,0.27976 14.65659,-1.13324 3.81525,-1.88874 3.99233,-5.95661 3.8908,-7.06388 -0.0874,-0.95853 -0.4344,-2.05872 -0.77437,-2.75755 0.42732,-0.43677 1.51334,-1.2265 2.97121,-2.20864 0.40962,6.9234 0.11569,13.18692 -0.33171,19.32649 -7.66473,10.00204 -12.78792,20.27441 -15.6777,34.12946 -11.63461,8.46154 -17.59948,21.181 -19.94506,31.78155 -21.729905,-5.53046 -28.853984,-9.6727 -34.526095,-12.13277 -3.560269,-1.54523 -8.851092,-0.51468 -12.070208,1.27017 -8.364742,4.63802 -14.238712,8.93963 -15.563189,14.9281 -9.573533,43.29574 -26.014985,46.54083 -26.888526,57.0186 -2.046918,24.57128 -5.82203,33.89101 -5.509208,39.85824 0.271506,5.135 4.74427,20.94372 18.422265,27.63339 5.471433,-4.3193 8.742488,-7.4794 10.356177,-9.81198 0.197137,0.87236 0.447396,1.74235 0.58669,2.65132 2.888586,18.80473 21.395843,23.90313 32.936023,25.76591 15.040246,-27.0231 -3.379657,-48.33751 -8.626804,-49.03752 -1.417732,0.27859 -3.569712,1.22061 -3.812886,0.4415 -0.2054,-0.65633 0.371845,-0.59849 2.189753,-1.54168 4.432629,-2.29836 -1.729374,-12.01945 -0.494613,-14.7416 2.337312,-5.14798 20.791449,-26.71144 25.687998,-26.76929 4.723022,-0.0567 23.626923,20.27795 40.378823,27.99344 5.3109,2.44827 12.13868,1.50036 34.74214,14.2092 4.6274,2.60409 8.60909,-0.59259 10.14251,-4.19182 0.39427,-0.92902 0.76139,-1.79312 1.11199,-2.62298 1.5169,0.0744 4.12925,0.69883 8.20184,3.05622 l -3.90378,5.27075 c -0.47455,-0.0661 -0.95499,-0.11332 -1.44606,-0.11332 -5.60247,0 -10.1437,4.53886 -10.1437,10.13306 0,0.71182 0.0933,1.39767 0.23255,2.06699 -2.23579,0.30455 -6.01327,1.15331 -10.47187,2.46834 -3.33126,0.98214 -9.07302,3.80226 -13.72167,7.0143 -5.27548,3.93683 -10.01148,9.45312 -12.66751,17.17924 -0.43678,1.27135 -0.70474,2.38807 -1.02228,3.78101 0.91367,-0.18297 1.84034,-0.37775 2.8933,-0.64099 7.70959,-1.93005 17.80488,-2.73867 22.78525,-3.0385 -0.33525,0.85347 -0.59141,1.61251 -0.76139,2.17913 0.98922,0.20422 21.63429,4.86231 25.97484,6.02389 0.18179,-0.94673 0.51114,-2.4648 0.89125,-4.82573 3.92149,1.50274 12.59551,4.63095 22.67192,5.74176 0.35886,-3.00545 -0.39309,-14.72152 -0.12866,-20.85991 l 2.87913,-1.0754 c 3.637,30.04862 22.37327,122.42082 84.32383,131.08303 -1.86395,-19.33829 -22.90566,-39.19482 -34.56742,-91.84689 -0.0295,-0.0567 2.5734,0.072 2.5734,0.072 0,0 12.5778,87.9502 71.80623,96.33619 2.3314,-10.94878 -26.6914,-58.68658 -34.61818,-96.662 1.48738,-0.0283 3.29466,0.0555 3.29466,0.0555 0,0 12.95083,56.23831 36.85397,88.50384 25.71987,-31.60919 6.01917,-80.21465 -6.55156,-113.44224 0.53593,-0.65398 1.24186,-1.39058 1.8368,-1.8368 0.32699,-0.0142 2.92872,0.27505 3.34188,0.25853 0.26443,4.53297 3.31001,16.47095 13.45371,23.75439 10.26293,16.05663 21.23885,24.20889 34.53555,31.76384 3.29585,2.55923 15.0367,16.80738 16.36355,22.42166 1.27488,5.38998 -9.01872,20.24726 -18.3302,33.51445 -3.92031,5.58593 -8.7236,11.17423 -13.32976,13.62488 -6.98005,3.71372 -33.32085,-2.73986 -37.91993,33.08829 3.71255,3.51659 15.10635,8.50286 26.34316,6.5492 -0.13221,1.17101 -0.38365,3.26869 -0.59377,4.49992 3.56499,3.25452 13.57294,5.43247 23.44748,5.52927 12.96972,0.12985 30.34846,-7.78986 27.07858,-23.50415 2.90276,-1.69632 2.94408,-3.06802 13.05708,-0.24553 9.85448,2.75048 12.08909,-0.57961 12.40545,-5.65322 0.5926,-9.47556 1.76125,-16.69526 4.72538,-26.27705 8.46154,-27.34891 23.05086,-48.29264 29.19279,-59.37716 2.55451,-4.61088 0.81333,-8.55716 -1.99498,-10.50609 -8.38599,-5.81731 -28.78435,-20.47391 -35.35715,-26.21567 -2.03983,-1.78249 -2.26648,-2.49313 -0.3022,-4.78559 2.89332,-3.37612 7.80639,-9.06593 10.46715,-12.39011 0.76493,6.04396 3.19668,12.30985 5.6851,16.10502 9.28313,14.16552 31.38962,16.83337 51.68763,-9.77775 -2.44828,0.87354 -4.422,1.64792 -7.61633,2.6761 -14.83484,4.78086 -18.56392,-3.11287 -13.00159,-12.14811 8.62326,-3.32537 21.15385,-7.19255 33.31377,-15.1878 11.03022,-7.25275 28.3464,-22.26703 36.86814,-37.92583 8.18532,-15.04143 9.51923,-41.70331 0,-57.1154 z M 212.14234,69.168393 c -5.28729,0 -9.57,-4.597893 -9.57,-10.270005 0,-5.673293 4.28271,-10.272366 9.57,-10.272366 5.28255,0 9.56762,4.599073 9.56762,10.272366 0,5.672112 -4.28507,10.270005 -9.56762,10.270005 z M 407.54276,329.3513 c 3.44931,2.07761 6.21747,3.94982 8.08025,5.27075 -0.87355,8.63507 -3.2144,23.44158 -7.3885,40.42605 -1.56884,6.38747 -3.46583,12.83515 -5.65677,19.30525 -1.39295,-1.80611 -3.56617,-3.00428 -5.94952,-3.00428 -0.399,0 -0.7909,0.0425 -1.17574,0.10743 -0.23845,-0.11214 -0.47454,-0.22075 -0.71536,-0.33525 2.07761,-6.18326 3.87663,-12.33935 5.36401,-18.4329 4.72893,-19.37371 6.84904,-35.40672 7.30941,-41.17917 0.0283,-0.36595 0.098,-1.58772 0.13222,-2.15788 z m 49.21103,41.38339 c 9.36459,5.38527 17.14028,5.71461 25.53453,1.01756 0.47574,-0.2656 1.3056,-0.59141 1.78014,-0.93847 3.79282,2.08588 7.01075,5.65442 8.50757,8.35059 -11.47406,6.79 -22.57748,16.06606 -29.60122,23.0898 0.29866,-8.45918 -3.17779,-21.73818 -6.22102,-31.51948 z m -271.34298,57.28539 c 2.58993,-1.83798 4.28389,-4.84698 4.28389,-8.26323 0,-0.46038 -0.0413,-0.90659 -0.0992,-1.34926 l 29.99668,-52.93184 c 3.98641,-0.79681 12.83515,-0.76612 17.10724,0.58433 -2.82958,15.82289 -11.8058,27.88719 -22.87969,39.34119 -7.06388,7.30942 -13.75001,16.58429 -16.4143,26.74924 l -11.99349,1.95838 c 0.10979,-2.3503 0.11924,-4.44679 -10e-4,-6.08881 z M 215.12182,406.662 c 11.09279,-11.46699 20.31099,-23.78037 23.29992,-39.9692 3.37494,1.38822 5.72995,3.16836 7.33657,5.06535 0.6941,12.91306 -0.9727,30.26937 -19.57794,35.26743 -1.88048,0.955 -22.48305,23.8335 -22.60582,24.11682 l -4.20598,0.68703 c 2.66784,-9.40709 9.00337,-18.19208 15.75325,-25.16743 z m 2.43646,-43.16353 c 0,0 -3.41034,-8.8806 -1.80728,-14.18086 4.75135,-5.0394 13.9672,-5.87634 13.9672,-5.87634 0,0 7.51128,12.52941 26.71028,12.21186 -3.00309,3.44105 -8.13218,9.90997 -10.14251,13.47968 -8.58313,-9.15093 -28.72769,-5.63434 -28.72769,-5.63434 z M 147.02342,224.26318 c -0.004,-0.0531 -0.0295,-0.5796 -0.0602,-1.20879 1.62549,-1.03644 3.39736,-2.14018 5.13618,-3.20968 0.098,0.97034 0.23963,2.37037 0.26324,2.65485 1.16276,13.83737 0.17235,28.72888 0.10034,30.47241 -0.11922,0.098 -5.02994,-0.16645 -5.8421,-0.20185 0.5619,-8.10269 1.19816,-17.99848 0.40254,-28.50694 z m 27.57555,-80.85091 c 0.0271,0.79444 0.37658,1.89228 0.60912,1.57237 2.05164,-2.82602 5.89994,-4.64275 9.7872,-7.06151 0.24317,0.0732 0.4828,0.16172 0.7248,0.23727 -0.4415,3.38202 -2.50021,8.44029 -5.53282,14.28829 -4.27917,-5.04411 -8.93254,-9.19224 -12.64391,-12.16582 0.74369,0.0165 1.71639,-0.11097 3.56145,-0.78029 1.37052,-0.63627 2.58757,-1.75652 3.33716,-3.20967 0.085,0.008 0.44386,0.0189 0.52766,0.0295 -0.62327,2.40578 -0.46509,4.39722 -0.37066,7.08985 z m 77.65659,109.5172 c -34.24988,0.93139 -83.08317,2.33614 -97.26049,0.2479 -0.0342,-1.49682 0.29039,-8.51821 0.19123,-16.40367 0.0897,-0.085 0.17353,-0.17471 0.26442,-0.25971 19.9061,-22.45472 46.99885,-43.75022 42.19084,-64.2796 -0.28331,-1.15213 -1.26545,-1.60543 -0.95617,0.0496 0.70237,4.00531 1.07422,9.80137 -5.77599,19.8766 0.16644,-1.59481 0.25497,-3.44931 0.26088,-5.52692 -0.0189,-6.8325 -0.99985,-15.65644 -3.7397,-22.74392 0.14283,-0.54774 0.22782,-1.13797 0.22782,-1.77896 -0.002,-0.40018 -0.0437,-0.77557 -0.1027,-1.13915 4.23904,-7.57029 7.22796,-14.29183 7.81229,-19.0727 18.5108,8.56778 34.91802,24.39068 44.92714,43.40317 8.04956,15.25745 11.91912,37.26359 11.90849,56.15096 0,1.68334 -0.0307,3.34424 -0.0897,4.97564 -0.0213,0.55245 -0.0413,1.27726 -0.039,2.13073 0.007,1.20643 0.0567,2.70916 0.18062,4.37006 z m -97.62998,-42.73856 c 0.83341,0.31518 2.53327,1.06359 3.96399,1.64792 -1.24775,0.78973 -2.73395,1.72466 -3.69838,2.32787 0.0531,-0.41434 0.0909,-0.83813 0.0909,-1.28788 -0.001,-0.91249 -0.14402,-1.92061 -0.35651,-2.68791 z m 26.49662,-41.4495 c 1.79311,-0.17471 3.51305,-0.87001 4.73954,-2.09296 2.05164,6.3249 2.9063,14.00616 2.88977,19.98519 0.0118,3.36077 -0.0909,6.89507 -0.31755,8.93608 -1.28197,1.66563 -2.75047,3.43869 -4.41964,5.32034 0.23019,-2.35266 0.36949,-5.17395 0.37185,-8.28565 -0.0189,-7.59862 -0.81452,-16.69643 -3.26397,-23.863 z m -6.31192,-6.63065 c 0.013,-6.2163 10.79176,-6.2163 10.79058,0 -0.013,6.21394 -10.7776,6.21394 -10.79058,0 z m 5.17395,11.37727 c 1.43426,6.03806 1.99734,13.09485 1.98317,19.11638 0.004,3.96635 -0.23726,7.51363 -0.58314,10.00322 -1.2383,3.13766 -5.61781,6.47836 -7.59154,7.21969 -1.68688,0.6351 -7.57974,1.20879 -13.00041,0.59732 -0.002,0.002 -0.0153,0.0106 -0.0201,0.0142 -1.53343,-0.52766 -4.0006,-1.39294 -6.06758,-2.38452 6.8089,-8.17115 16.50756,-21.0547 24.62677,-33.54515 0.21956,-0.34116 0.43441,-0.67994 0.65279,-1.0211 z m -7.70486,40.09198 c -2.68437,2.73867 -11.26868,11.66767 -15.78984,16.37534 -0.0271,-0.48044 -0.48398,-8.53709 -0.93728,-12.22012 3.46465,-2.10358 6.15374,-3.69721 6.15374,-3.69721 2.03983,0.1511 8.3069,0.22194 10.57338,-0.45801 z m 14.06637,-55.43559 c -0.86765,-1.10964 -2.18504,-1.9702 -3.55201,-2.39752 -0.33997,-0.45448 -0.59141,-0.8157 -0.93965,-1.25838 3.2321,-6.07819 5.50212,-11.47407 6.16082,-15.57498 1.68452,0.58431 3.36078,1.21115 5.01814,1.91706 -0.12631,3.69129 -2.72214,9.97607 -6.6873,17.31382 z M 165.4693,138.65855 c -0.84994,-0.64571 -1.61723,-1.2076 -2.27947,-1.68098 2.93343,-0.68348 5.85271,-0.99984 9.16155,-0.83694 -1.27608,1.8061 -3.78928,2.82602 -6.88208,2.51792 z m 2.05517,4.72185 c 3.70665,3.0869 8.09442,7.22914 11.9923,12.07493 -1.83798,0.13693 -3.61811,0.82396 -4.89065,2.05871 -7.35545,-9.16509 -16.75073,-15.44396 -19.82347,-17.37402 2.32551,-1.44842 4.16231,-2.1319 5.19285,-2.44119 1.27607,0.85348 4.08676,2.81069 7.52897,5.68157 z m 7.16186,23.37783 c 1.03763,0.9786 2.39633,1.6007 3.84711,1.87103 0.20658,0.55953 0.40491,1.13207 0.59141,1.72584 -0.59966,0.94436 -1.20288,1.88873 -1.82262,2.83781 -8.22191,12.65337 -17.9489,25.62544 -24.69878,33.6691 -1.35989,-1.34218 -3.16953,-2.16143 -5.08188,-2.453 6.81481,-8.1676 16.39305,-20.96379 24.55712,-33.52625 0.89479,-1.38586 1.75299,-2.75637 2.60764,-4.12453 z m 91.33457,87.68932 c 0.0578,0.0248 0.0897,0.0378 0.11097,0.0448 0.004,-10e-4 0.0177,-0.005 0.0177,-0.005 0,0 0.0354,0.0224 -0.0177,0.005 -0.76376,0.18298 -81.2204,19.40205 -120.80477,13.33448 0,-1.47085 0.83458,-10.81891 1.0565,-12.43615 30.15486,1.8675 75.17055,1.34928 119.6373,-0.94318 z m 14.26823,-2.71743 c 0.52294,2.56043 1.33864,5.05827 2.45535,7.42039 0.13694,0.29038 0.35179,0.84048 0.62092,1.44488 -0.80271,-0.0673 -1.60306,-0.1511 -2.39869,-0.25734 -1.06831,-0.14285 -1.84977,-0.14756 -2.56278,-0.99159 -0.55954,-0.66106 -1.04942,-1.37878 -1.46023,-2.14136 -0.80271,-1.48738 -1.2985,-3.11641 -1.64438,-4.76434 -0.90187,-4.28743 -0.9904,-8.71888 -0.77083,-13.08067 0.14991,-2.97831 0.24081,-6.55392 1.41183,-9.42599 1.00811,2.77173 2.23106,5.90349 3.69484,9.23003 -0.27623,4.20125 -0.19006,8.43675 0.65397,12.56599 z m 0.16645,42.22271 -3.49299,-19.06089 25.19575,-3.12822 1.63848,1.583 1.99144,15.95038 -25.33268,4.65573 z m 25.63369,-2.25232 0.95972,7.68598 -24.76489,4.55068 -1.39293,-7.60689 25.1981,-4.62977 z m -22.41222,-21.30259 1.22296,-1.39412 c 0.87354,-1.655 1.47675,-3.66886 1.85214,-5.60129 2.50494,0.29985 5.15153,0.33172 7.64939,0.0838 0.10741,0.12514 0.20894,0.25616 0.31872,0.38129 1.02817,1.26899 2.03629,2.5014 3.14828,3.75032 l 0.91841,0.88771 -15.1099,1.89227 z m 7.60689,-9.23945 c -1.2265,0.0142 -2.45418,-0.007 -3.67714,-0.10035 -1.29024,-0.098 -1.40711,-0.49697 -2.00206,-1.60779 -0.87472,-1.62785 -1.59598,-3.33715 -2.14962,-5.09958 -0.98214,-3.12114 -1.49092,-6.96708 -1.61723,-10.44117 2.8036,5.73113 6.30012,11.73259 10.60762,17.1993 -0.38719,0.0201 -0.77438,0.046 -1.16157,0.0496 z m -22.31188,-5.47026 c 0.45093,-0.32934 3.009,-0.76376 4.44679,-0.89125 0.0708,0.23846 0.11923,0.48399 0.19713,0.7189 0.4899,1.49564 1.15922,2.93227 2.05283,4.23077 0.0283,0.0413 0.0614,0.0921 0.0921,0.13694 -1.05298,0.0106 -1.75062,-0.0165 -2.66667,-0.0165 -2.36092,0 -3.08336,-0.0531 -3.63109,-0.28686 -0.81333,-0.34823 -1.28671,-1.09309 -1.37524,-2.17912 -0.0531,-0.64571 0.35178,-1.3233 0.88417,-1.71285 z m -3.48709,-2.96886 c -0.53001,-0.17234 -1.82617,-0.74014 -1.82617,-2.36446 0,-1.18637 0.79563,-2.09532 2.03276,-2.29954 2.4105,-0.25026 5.25423,-0.40726 6.49252,-0.45093 0.1216,1.67626 0.33526,3.35368 0.67759,5.00043 -1.01165,0.0744 -2.3078,0.25616 -3.33007,0.27387 -1.11436,0.0189 -3.18016,0.12276 -4.04663,-0.15937 z m 3.72554,-23.64698 c -1.31149,-15.49354 -4.94967,-29.24944 -9.39175,-39.68825 -3.15064,-7.40385 -7.70723,-16.19356 -12.19061,-21.64846 4.20716,2.93226 12.47983,6.09707 15.84768,7.30704 3.0267,16.81212 6.36505,36.37234 11.52838,52.26725 0.0791,0.22665 0.16762,0.47218 0.24908,0.70591 -1.67744,0.20894 -3.90733,0.55481 -6.04278,1.05651 z m 3.76684,1.88992 c -0.21602,1.08011 -0.29628,2.35147 -0.37656,2.90984 -0.13812,0.97269 -0.24907,1.95129 -0.33525,2.93343 -1.56765,0.0649 -4.74427,0.36005 -5.31089,0.40963 -1.23359,0.10861 -2.32433,-0.40609 -2.56986,-1.36815 -0.21131,-0.82987 0.19713,-2.03984 0.55246,-2.54508 0.35649,-0.50523 1.34218,-1.01047 3.44104,-1.47085 1.9029,-0.41671 3.23327,-0.67405 4.59906,-0.86882 z m -7.55257,8.80505 c 0.94082,-0.1688 4.57191,-0.46628 6.68258,-0.54301 -0.0968,1.97845 -0.10742,3.96162 -0.0472,5.93299 -1.82498,0.11097 -4.81627,0.43206 -7.00248,0.51469 -0.99513,0.0637 -2.41758,-0.67287 -2.44237,-2.75402 -0.026,-2.20746 2.32668,-3.06329 2.8095,-3.15065 z m 0.15464,16.72713 c -0.0425,0.26914 -0.0614,0.54655 -0.0378,0.82985 0.14992,1.84034 1.14977,3.31238 2.57931,4.26619 0.0578,0.039 0.12748,0.072 0.19359,0.10624 -0.013,0.0366 -0.0307,0.0732 -0.0401,0.1086 -0.80626,2.46717 -2.42703,6.17028 -5.20702,10.15433 -0.19596,0.28095 -0.40371,0.55954 -0.60557,0.8393 -3.8731,-3.63346 -5.91411,-8.92073 -6.94938,-13.92352 4.69942,-1.06715 8.19004,-1.91589 10.06698,-2.38099 z m 0.98096,14.45119 c 1.6609,-2.71624 3.13411,-5.56586 4.08085,-8.71298 0.005,-0.0189 0.006,-0.0342 0.009,-0.0531 0.55954,0.0366 1.19227,0.0531 1.92416,0.0531 1.4555,0 3.20731,0.0106 5.3817,-0.008 0.0543,0.0201 0.10743,0.0496 0.16173,0.0626 1.64202,0.38129 3.32063,0.43088 4.98036,0.57608 -0.18297,1.44133 -0.75549,3.22973 -1.16393,4.1977 l -3.49063,3.99114 -1.93122,0.24199 -3.80935,0.47692 0.69175,3.7751 0.19478,1.05769 -1.13914,1.30324 c -7.03556,7.57147 -17.24889,15.60805 -25.43539,25.16268 -0.35413,-3.82587 3.56382,-10.83189 7.21026,-15.80636 4.15757,-5.67092 8.7897,-10.52144 12.33463,-16.3175 z m 6.5787,11.45637 1.25129,-1.426 5.83029,31.81814 c -10.87558,9.59832 -31.07089,33.79657 -35.28041,38.87727 -4.49992,-1.5405 -9.19343,-4.21661 -12.81154,-8.78262 7.86659,-35.69948 26.76575,-45.4973 41.01037,-60.48679 z m -26.32781,69.85256 c 2.25468,-2.71506 7.29288,-8.73423 13.12436,-15.41327 6.93638,-7.94214 14.99893,-16.80149 20.66632,-21.96129 l 3.5827,19.54843 -0.99395,0.68585 c -10.44354,7.25629 -20.4503,14.19031 -25.07061,18.4258 -2.32551,0.17116 -6.60822,0.0271 -11.30882,-1.28552 z m 37.1479,-13.12318 0.96327,-0.67286 1.56174,8.52056 c -4.14578,0.15464 -8.49341,-0.006 -12.90597,-0.69647 2.77526,-1.84979 7.20436,-5.06181 10.38096,-7.15123 z m -1.23829,-32.81562 24.62794,-4.5247 16.42965,131.56939 c 0,0 2.66902,21.58826 -3.27224,32.7023 -9.41653,-10.54624 -13.82082,-28.95197 -13.82082,-28.95197 L 282.72088,306.31579 Z m 30.43226,12.45033 c 7.045,-5.04294 12.75961,-9.52515 16.57248,-14.51023 2.0245,-2.64659 3.84831,-6.7664 4.56721,-9.4307 1.2265,0.65515 5.58357,3.07392 6.13721,3.32536 -0.12631,2.91101 -0.9361,7.9622 -1.69632,11.29111 -2.65013,11.60864 -9.5995,24.62794 -22.86551,31.25858 l -2.74103,-21.96246 c 0.007,0.007 0.026,0.0283 0.026,0.0283 z m -0.48753,-3.96989 -0.0283,0.0201 -3.15773,-25.29608 c 0.46393,0.18179 0.89479,0.35414 1.03172,0.42024 1.9997,0.96561 3.82352,2.3255 5.17396,4.1021 3.91559,5.15507 2.78352,12.49399 0.50996,18.16256 -1.24184,0.95145 -2.44119,1.825 -3.52958,2.59112 z m 15.77332,-15.10754 c -2.02803,3.47999 -5.47498,6.93284 -8.99512,9.90642 1.426,-4.72065 1.87457,-9.82143 -0.24317,-14.36502 -1.92297,-4.1257 -5.75592,-7.06269 -10.05633,-8.39425 l -1.18047,-9.46257 0.0519,0.0496 c 6.24581,5.28138 14.49487,10.96293 22.9328,15.76623 -0.49107,1.86984 -1.47321,4.72184 -2.50965,6.49961 z m -12.25437,43.55073 c 2.28656,-0.86057 4.4291,-2.05873 6.42525,-3.48591 -1.73291,7.90909 -3.03378,16.18766 -3.86011,24.03654 l -2.56514,-20.55063 z m 7.29998,4.85641 c 3.04204,2.33731 10.63241,8.12865 15.34244,11.54136 4.15522,3.0149 8.81449,6.29776 13.75118,9.64081 -2.60174,1.20525 -4.47395,3.86129 -4.47395,6.84431 0,0.12395 0.0142,0.24436 0.0201,0.36712 -10.72213,-7.25037 -20.05603,-14.18794 -26.20387,-18.89562 0.47219,-3.25335 0.99985,-6.46302 1.56412,-9.49798 z m 26.11414,32.43904 c 1.14976,1.54759 2.86379,2.66313 4.80211,3.00428 0.82515,0.53357 1.65736,1.06478 2.49313,1.59717 -1.58064,4.06432 -3.31,8.23489 -5.23416,12.52467 -1.65265,3.68422 -5.1173,6.61177 -8.37772,8.1558 -0.85348,-4.92134 -0.61502,-8.78734 0.71772,-11.76211 2.08232,-4.64864 3.93329,-9.15446 5.59892,-13.51981 z m 6.03924,0.70357 c -2.75756,0 -5.11613,-2.35739 -5.11613,-5.11613 0,-2.75873 2.35857,-5.11493 5.11613,-5.11493 2.75873,0 5.11611,2.3562 5.11611,5.11493 0,2.75874 -2.35738,5.11613 -5.11611,5.11613 z m 7.52897,-5.00634 c 5.69218,3.61693 11.56143,7.14769 17.37047,10.32431 4.09502,2.24406 8.04721,4.28152 11.88134,6.13367 -1.98554,1.37641 -3.32418,3.66886 -3.32418,6.1927 0,0.5796 0.0779,1.14504 0.21012,1.69278 -4.15994,-1.99735 -8.4273,-4.19064 -12.82924,-6.59524 -6.12659,-3.35368 -12.27443,-7.05679 -18.2027,-10.83308 2.78824,-1.08721 4.84579,-3.81643 4.89419,-6.91514 z m 26.9747,27.41147 c 0.42142,0.19714 0.84402,0.39781 1.26191,0.59141 1.27962,1.25011 2.98184,2.05755 4.8328,2.16024 0.55128,0.23609 1.0943,0.45212 1.64321,0.68113 -1.42246,3.58034 -2.91574,7.15949 -4.51763,10.73157 -1.65146,3.68303 -5.11611,6.61058 -8.37772,8.1558 -0.8523,-4.92253 -0.61384,-8.78736 0.7189,-11.76211 1.57592,-3.51659 3.04322,-7.03909 4.43853,-10.55804 z m 6.48663,0.35414 c -2.75873,0 -5.11612,-2.3562 -5.11612,-5.11493 0,-2.75874 2.35739,-5.11613 5.11612,-5.11613 2.75755,0 5.11611,2.35739 5.11611,5.11613 0,2.75873 -2.35856,5.11493 -5.11611,5.11493 z m 7.53369,-5.11493 c 0,-0.3506 -0.0354,-0.6953 -0.085,-1.03527 12.36178,4.95322 23.30701,7.52425 33.08123,7.50536 8.01651,-0.007 15.29403,-1.67624 22.29653,-5.14208 0.0283,3.28995 -0.32581,6.633 -0.81098,9.61485 -6.79827,2.66902 -13.94478,3.98996 -21.42182,3.98996 l -0.0637,0 c -11.45047,-0.0177 -23.59977,-2.95823 -36.913,-8.37064 2.3078,-1.30914 3.91676,-3.79519 3.91676,-6.56218 z M 382.5831,317.88667 c 8.5843,2.65603 16.45798,6.54211 22.61644,10.08467 -0.0295,0.8275 -0.0874,1.94185 -0.1995,3.3466 -0.54065,6.77113 -2.83546,22.72032 -7.24802,40.79789 -1.35281,5.54699 -3.07392,11.55789 -5.21056,17.94654 -3.5036,-1.71284 -7.11109,-3.57797 -10.84489,-5.62607 -6.04041,-3.30293 -12.16582,-6.99896 -18.08818,-10.7835 8.844,-26.63591 10.65364,-47.04843 10.84843,-57.79298 2.75283,0.54418 5.48677,1.20996 8.12628,2.02685 z m -10.53915,-2.47189 c -0.1452,9.70929 -1.69749,29.77357 -10.35028,56.31741 -1.33864,-1.81673 -3.45521,-3.04323 -5.79724,-3.12941 -0.57842,-0.38718 -1.15685,-0.77437 -1.72818,-1.16157 7.85006,-24.70939 9.38347,-44.11735 9.5204,-53.14668 2.72451,0.26914 5.53636,0.6339 8.3553,1.12025 z m -10.86731,-1.34336 c -0.0307,8.57958 -1.22532,27.02309 -9.08246,51.96033 -4.23314,-2.89568 -8.22781,-5.72524 -11.85066,-8.35176 -4.81273,-3.48944 -13.1456,-9.86275 -16.2443,-12.252 0.61856,-3.09517 1.26781,-5.92592 1.92061,-8.36121 7.8654,-7.18428 12.84577,-17.6219 14.20801,-23.17715 1.91826,-0.17117 10.60645,-0.65516 21.0488,0.18179 z m 28.17051,-172.41095 c 2.41285,20.226 5.83383,38.75923 7.37432,56.14977 3.30293,37.312 -2.05163,69.36621 -44.58243,101.60813 -51.9627,-21.87157 -68.51039,-51.63924 -77.10414,-84.8149 -4.29451,-16.58193 -6.60231,-34.01379 -10.35145,-51.73721 3.00898,-0.51115 34.2782,-5.90349 64.77185,-11.07272 29.10307,-4.93197 57.49787,-9.66207 59.89185,-10.13307 z m -87.95729,-35.99696 c 6.29067,-20.164629 15.62812,-27.162397 45.08414,-27.072682 21.04052,26.328992 -2.28655,51.060812 2.45536,66.068012 -3.8908,0.6764 -8.23017,1.41182 -12.27679,2.11538 -1.90408,-0.38601 -3.97697,-1.24539 -5.49859,-2.01033 -5.49032,-2.76464 -9.27369,-6.66606 -9.7199,-7.77451 -1.06596,-9.92058 14.32606,-29.86447 -12.26735,-28.88233 -7.93034,0.29276 -8.38953,-0.31045 -7.77687,-2.44354 z m -3.58388,15.49118 c 1.76478,-3.14475 4.64512,-7.66237 6.17263,-10.03156 0.14637,-0.008 0.28095,-0.0153 0.42142,-0.026 0.31047,0.23609 0.74251,0.50878 1.33274,0.77083 -0.40371,1.02936 -0.61383,3.05975 0.80862,3.7397 1.44251,0.68821 2.83901,-10e-4 3.72081,-0.91485 1.5039,0.23019 2.95115,0.56779 2.8756,0.29393 -0.10388,-0.38365 -2.20982,-2.45536 -3.29585,-3.12468 -0.55481,-0.34233 -1.43071,-0.99985 -1.78485,-1.2383 17.22527,-0.49107 15.60096,4.87295 13.1456,14.6566 -1.24656,4.96737 -3.42452,10.51907 -1.39766,13.71223 -6.36622,2.52972 -11.78336,3.84357 -15.41327,4.15876 -4.47631,0.38955 -6.90924,-2.1933 -4.56957,-6.93994 0.58669,-1.19108 -0.0248,-2.10711 -0.27032,-2.92399 -0.28803,-0.95972 0.0767,-1.09901 0.48281,-1.08838 3.45521,0.0932 4.60851,0.42968 7.89491,2.28182 1.4992,0.84639 2.47189,0.76849 3.09282,0.22429 0.3022,-0.26442 0.44267,-1.45786 -0.36358,-2.839 -1.07659,-1.84507 -2.53682,-3.72908 -4.68998,-6.30484 -0.80035,-0.95735 -1.80138,-1.3174 -2.25586,-1.36816 -0.6339,-0.0696 -4.79739,0.0425 -5.78897,-0.20658 -0.798,-0.1995 -0.91958,-1.40121 -0.11805,-2.83192 z m 10.04926,-7.42746 c 0,-0.52649 0.34233,-0.95145 0.76612,-0.95145 0.42496,0 0.76494,0.42496 0.76494,0.95145 0,0.52766 -0.33998,0.95381 -0.76494,0.95381 -0.42379,0 -0.76612,-0.42615 -0.76612,-0.95381 z m -9.88871,15.12878 c 0.42496,-2.07643 0.70945,-2.23697 1.02817,-2.4707 0.31872,-0.23373 4.67581,-0.0189 5.41831,0.0519 0.41435,0.033 0.8039,0.46038 1.18637,0.85465 1.73174,1.79666 3.43632,3.9876 4.06905,5.31916 0.50288,1.0565 0.0236,1.20052 -0.60794,0.9361 -1.09074,-0.45684 -3.72672,-2.13546 -5.14091,-2.55098 -0.57488,-0.16644 -2.42585,-0.34823 -4.24729,-0.38719 -1.82381,-0.0389 -2.03394,-0.13575 -1.70576,-1.75298 z m 1.34335,15.73318 c 1.42364,0.76847 3.47292,1.18872 6.12659,0.84875 5.36166,-0.68586 13.45253,-3.31001 16.1251,-4.57547 3.1353,3.1353 8.14045,6.02508 10.20626,6.84313 -3.44577,0.59849 -15.47112,2.66312 -28.69817,4.93196 -1.22533,-1.69986 -3.78456,-5.08778 -6.68023,-7.87012 1.03526,-0.1027 2.03275,-0.16763 2.92045,-0.17825 z m -7.69188,0.89597 c 0.52885,-0.10743 1.07305,-0.20659 1.62432,-0.29748 1.85333,1.54168 3.77393,3.65116 5.30617,5.52927 0.71536,0.87473 1.34455,1.69042 1.85923,2.37745 -4.51527,0.7732 -9.10844,1.56175 -13.50093,2.3137 0.36595,-1.11671 0.93728,-2.64186 1.6314,-4.14577 0.90659,-2.03629 2.03039,-4.1812 3.07981,-5.77717 z m -8.19593,2.57222 c 1.15449,-0.47101 3.04913,-1.15922 4.86232,-1.71639 -0.6953,1.26309 -1.35871,2.61471 -1.95248,3.93329 -0.9786,2.23933 -1.74472,4.16821 -2.08352,5.58949 -1.87811,0.32226 -3.70428,0.63508 -5.45963,0.9361 0.52295,-1.76598 1.61133,-3.93448 2.7068,-5.74649 0.7071,-1.18636 1.40002,-2.23225 1.92651,-2.996 z m -33.8013,-16.20418 c 11.88723,3.20023 25.54989,11.46581 31.39552,15.44633 -1.61251,2.37862 -4.12925,6.47246 -4.80919,9.94183 -8.95851,1.5346 -15.46285,2.64895 -15.85713,2.71387 0.61856,2.98421 1.49565,7.21144 2.1992,10.67137 -3.83059,-1.73528 -11.17542,-3.99586 -18.82244,-9.04468 -1.41301,-0.96091 -7.48648,-7.15242 -10.72802,-10.20626 0.65161,-4.07967 4.71594,-9.1474 8.95733,-13.11256 2.31606,-2.19802 4.64511,-4.09857 6.39219,-5.44665 0.47337,-0.36593 0.89834,-0.68584 1.27254,-0.96325 z m 34.23925,-82.317043 c 0,0 170.49035,3.397365 173.91369,3.967527 3.98758,0.664599 17.73995,5.186943 17.73995,5.186943 0,0 -13.94123,4.791488 -17.3386,5.190484 -3.2321,0.378928 -174.31504,5.367553 -174.31504,5.367553 l 0,-19.712507 0,0 z m -11.16716,0.453297 4.85052,-22.610538 4.0903,0.05902 0.0295,63.306904 -4.7608,-0.02951 -4.43262,-23.476997 c 7.97284,-9.387021 4.893,-11.651144 -0.26088,-13.69216 0.0732,-0.900691 0.44031,-2.748111 0.48398,-3.556726 z m -9.20759,-9.042327 c 0.88063,-0.324627 2.453,-0.297476 3.16482,0 2.39279,1.002212 2.58285,8.501675 2.44001,11.363112 -2.20746,-1.332741 -5.64496,-4.543593 -6.36268,-4.619143 -0.38483,-2.074068 -1.79548,-5.800782 0.75785,-6.743969 z m -0.16644,9.325637 c 1.32212,0.0118 2.65604,3.293484 9.95718,6.336711 2.18385,0.908954 1.65147,4.129251 -3.1955,9.879273 -0.92666,1.097828 -4.51999,7.909085 -11.92383,7.682436 -10.85198,-0.33289 -7.30469,-7.878393 -4.51526,-9.342163 6.07346,-3.189604 8.39426,-0.787367 9.35632,-0.08736 0.64454,0.422606 1.25365,0.584329 1.75772,0.756676 1.28434,0.437951 2.43765,0.212482 1.15566,-0.454478 -1.42835,-0.747231 -1.7459,-2.031572 0.18533,-2.578125 1.1356,-0.319904 2.16379,-0.649254 2.71978,-0.956173 0.71654,-0.397815 1.22532,-1.12734 0.72127,-1.529877 -0.50406,-0.402536 -2.63834,0.158183 -3.30175,-0.351776 -6.92458,-5.315613 -4.57311,-9.371675 -2.91692,-9.355149 z M 253.3038,43.959661 c 0.53122,-2.277108 5.34985,-2.520281 6.06167,-0.0083 0.68348,1.699863 1.25011,4.034813 1.40002,4.988626 -1.32919,1.709306 -1.74825,5.758285 1.24894,9.299666 1.36578,2.010324 -0.0874,2.529727 -1.59244,2.581666 -0.92903,0.03187 -2.18858,-1.034082 -3.3053,-2.722141 -2.42348,-3.664149 -4.86113,-9.649083 -3.81289,-14.139555 z m -2.49667,1.328018 c 1.48621,10.835447 4.01003,12.990967 5.53636,15.0249 1.69161,1.702224 -3.14593,2.480148 -5.06181,1.090746 -2.60882,-1.894639 -5.51512,-8.253779 -5.51512,-12.012364 0,-4.307501 3.98996,-5.240064 5.04057,-4.103282 z m -7.48766,4.256741 c 1.94894,8.921919 5.74294,12.408999 5.74294,12.408999 0,0 2.57695,2.222807 -1.53814,2.66548 -1.30322,0.140475 -5.15389,-0.938466 -8.61381,-8.1015 -2.55098,-5.280199 2.15316,-7.998799 4.40901,-6.972979 z m -19.26394,12.689948 c 0.19479,-0.9243 0.45567,-2.346755 0.45567,-3.3348 0,-1.082482 -0.13576,-2.12837 -0.36949,-3.135303 l 0.69765,0.0024 11.25687,0.04604 c 0.33172,1.544042 2.1331,4.646292 3.24863,6.346155 l -15.28933,0.07555 z m 15.49119,11.583858 c 0,0 2.32196,-0.200678 3.83649,-0.369484 3.82706,-0.428507 -2.12955,-0.602035 -3.43395,-1.241845 -1.71403,-0.842848 -3.38675,-2.705615 -3.06801,-6.365042 l 6.37684,-0.02007 c 1.4437,0.781464 3.153,1.214694 4.29687,1.499184 -0.70473,4.331109 2.12011,9.20287 10.89566,9.126139 0.34351,-0.0035 1.18517,-0.0071 1.51099,-0.02951 -2.5557,3.286401 -8.95144,13.999081 -8.15934,28.348752 -2.97595,0.2904 -6.04042,0.44267 -9.05886,0.44267 -2.91338,0 -5.77482,-0.12866 -8.44738,-0.36829 -4.50464,-0.37539 -10.75399,-2.42704 -12.82806,-3.56618 12.49281,-20.547091 18.07875,-27.456326 18.07875,-27.456326 z m -17.10369,31.473434 0.39546,-0.77911 c 3.07863,1.18283 7.46758,2.37746 11.2427,2.73514 2.75047,0.24671 5.67919,0.37774 8.66222,0.37774 1.79194,0 3.60159,-0.0519 5.40296,-0.14992 l -0.0413,0.21839 c -0.66343,5.23652 -3.11996,12.10444 -4.03246,14.53265 -8.02358,4.52824 -14.72033,5.67329 -19.47287,5.67565 -2.52618,0 -4.50346,-0.32227 -5.83856,-0.63863 -0.66932,-0.15937 -1.17456,-0.31637 -1.50509,-0.42969 -0.085,-0.0295 -0.15581,-0.0543 -0.21484,-0.0755 0.11451,-11.42331 2.79769,-15.97988 5.40179,-21.46667 z m -6.02507,23.80989 c 1.1722,0.40962 4.01474,1.21823 8.18177,1.21823 l 0.0283,0 c 5.09367,0 12.14221,-1.24184 20.40661,-5.85981 1.41656,1.73646 2.45772,4.00885 3.05149,5.51984 -1.82264,1.35753 -4.80093,3.69012 -7.79458,6.5303 -3.9994,3.84477 -8.12983,8.5064 -9.40473,13.30851 -5.1527,-4.55657 -10.10827,-8.1499 -16.09558,-12.63918 -0.14047,-1.23831 0.91368,-5.43485 1.62668,-8.07789 z m -12.27915,5.81141 c 22.28709,11.93681 46.38383,32.05539 57.19094,69.5055 1.74237,6.03569 3.32654,15.04614 4.31576,25.70689 -1.24419,0.4887 -1.86511,0.97506 -2.47424,1.67507 -0.92311,1.06123 -1.52397,3.22147 -1.04352,4.99806 0.31754,1.17338 0.96798,1.70813 0.96798,1.70813 0,0 -2.82367,1.04235 -2.84255,4.30396 -0.0118,2.11539 0.73543,3.30883 2.40931,4.26855 -0.8275,0.471 -1.53105,1.98081 -1.42599,3.20141 0.0708,0.88534 0.37657,1.79783 0.8641,2.38688 -2.37272,0.0614 -4.8576,0.12749 -7.44045,0.19714 -0.12749,-1.62431 -0.17588,-3.10461 -0.16762,-4.30514 0,-0.81924 0.0165,-1.50981 0.0366,-2.03983 0.0602,-1.66092 0.0921,-3.35133 0.0921,-5.06654 -0.007,-19.21553 -3.86954,-41.46249 -12.18825,-57.27712 -11.82468,-22.43229 -32.2372,-40.50631 -54.88196,-47.95738 2.0658,-1.49564 4.03244,-3.27105 5.61662,-5.58594 3.51778,0.88063 6.98243,2.14372 10.9712,4.28036 z m -10.69969,-17.9312 c 0.87826,17.25125 -11.43747,18.69023 -16.49812,23.44631 0.80626,-10.6277 10.27237,-18.8555 16.49812,-23.44631 z m -8.79207,-0.20067 c 0.14993,1.19698 0.0956,3.00427 -0.25498,4.78204 -0.84285,0.81923 -2.03157,1.99379 -2.84255,2.91927 -1.69868,-0.21366 -3.36903,-0.36122 -5.00987,-0.45211 1.91234,-4.00058 6.18207,-6.6342 8.1074,-7.2492 z m -33.16621,15.94093 c 5.59066,-4.23077 15.86067,-5.9932 27.42445,-4.91071 -1.04117,1.57237 -2.47897,4.37714 -3.21794,6.21158 -9.1096,-1.09076 -17.61719,0.65042 -24.44969,5.14799 -0.10034,-1.10847 -0.0885,-6.08765 0.24318,-6.44886 z m -24.10028,36.43962 c 7.66827,-10.1732 17.00335,-20.56125 23.45102,-26.09053 0.61621,-0.52766 1.21233,-1.00103 1.79312,-1.43544 0.23019,0.13458 1.11554,0.66578 2.47897,1.57828 4.01474,2.6702 11.97459,8.55598 18.11416,16.41429 -0.29039,0.73308 -0.46155,1.55704 -0.46509,2.48252 0.004,0.92312 0.1747,1.74354 0.46273,2.47543 -1.02464,1.65146 -2.07525,3.31236 -3.16481,4.97918 -8.22899,12.66633 -17.9666,25.64904 -24.71648,33.69269 -6.72863,-3.4434 -13.05353,-7.64465 -18.02563,-11.30054 -5.39235,-3.96517 -9.17572,-7.24567 -10.26646,-8.20775 3.1353,-4.73364 6.59523,-9.62074 10.33847,-14.58813 z m -11.67594,16.6327 c 2.69972,2.35974 13.93888,11.90848 27.20018,18.93576 -2.40106,0.72126 -4.47631,2.33614 -5.45373,4.84342 -4.20126,-2.40695 -8.19949,-5.05236 -11.70899,-7.59508 -4.07259,-2.94878 -7.51245,-5.73821 -9.93239,-7.78867 -1.74236,-1.47676 -2.93345,-2.55216 -3.47056,-3.04441 1.06713,-1.75417 2.19212,-3.54138 3.36549,-5.35102 z m 21.45134,29.76884 c -1.86867,0.68232 -5.20466,2.46363 -7.62224,4.2107 l -1.71639,-2.4341 c 3.25217,-1.28553 7.26927,-1.96665 9.27133,-2.04219 l 0.0673,0.26559 z m -25.79189,15.44869 c -3.57562,7.70605 -12.373582,-7.00132 -12.128047,-9.17454 0.810977,-7.20081 5.112577,-17.19576 11.838837,-28.57776 2.77172,2.50021 13.30733,11.75266 25.81549,18.79646 -0.0213,0.26915 -0.0413,0.53947 -0.0413,0.82279 0,0.10624 0.0118,0.20304 0.0153,0.30692 -2.23461,0.1027 -6.51378,0.87353 -8.47569,1.40592 -12.44088,3.37494 -15.22913,12.55065 -17.02461,16.42021 z m 26.69494,-6.09472 c -1.50982,-0.60794 -3.68659,-1.24303 -4.81629,-1.08484 -1.53105,0.21602 8.15109,5.43484 3.15537,9.91468 -1.99852,1.79194 -14.16434,3.14357 -14.25524,-0.5194 -0.11686,-4.74899 8.61855,-11.75149 15.80992,-15.98461 1.14976,2.00324 3.08453,3.29348 5.25068,3.87309 -1.92179,1.59716 -4.56248,3.53548 -5.14444,3.80108 z m 1.2076,-12.03833 c 0.0165,-8.34113 13.29671,-8.34232 13.29789,0 -0.0189,8.34467 -13.28136,8.34586 -13.29789,0 z m -8.41314,67.89771 c 1.40711,-8.46626 5.84919,-20.37592 13.65556,-31.53835 -0.65042,7.02137 -1.44369,13.78069 -1.75887,20.63798 31.30934,5.56824 85.03917,-4.81391 110.38366,-10.46596 1.10727,5.39471 3.35368,11.22737 7.88665,15.33536 -2.97593,3.90496 -6.31192,7.74146 -9.05885,11.53075 -1.48265,2.04337 -3.81879,5.45844 -5.47025,9.24064 -12.06194,3.86365 -45.76291,13.56702 -80.38109,15.2598 -3.70311,0.17825 -7.44398,0.27859 -11.20374,0.27505 -14.16081,0.004 -28.59784,-1.41891 -42.2959,-4.99807 4.05016,-12.84931 11.10105,-20.08316 18.24283,-25.2772 z m -18.92395,27.59681 c 13.97311,3.65825 28.6356,5.0984 42.97702,5.0984 3.80344,0 7.58209,-0.10034 11.32061,-0.28094 36.18819,-1.77423 68.35692,-11.36312 79.22542,-14.91512 -0.80272,2.54507 -1.16393,5.14563 -0.63037,7.53016 -0.86882,1.12379 -2.14726,3.07745 -3.43515,5.13145 -13.08658,4.07142 -42.58627,12.14222 -75.27795,13.73938 -3.7031,0.17825 -7.4428,0.27859 -11.20375,0.27859 -15.10753,0 -30.54323,-1.58535 -45.04754,-5.72169 0.47809,-3.9935 1.18164,-7.59744 2.07171,-10.86023 z M 20.329331,389.1239 c 1.320935,-8.9467 1.800203,-17.61246 2.116565,-18.53322 3.130581,-9.12968 16.290354,-13.8645 26.293575,-53.53388 0.533568,-2.11538 0.887706,-3.53901 1.828533,-4.94258 1.951301,-2.91219 5.168054,-4.94495 8.892407,-7.359 5.722872,-3.709 9.495624,-4.24021 12.927222,-2.77289 2.546252,1.08838 5.578855,2.70442 10.333749,4.58845 5.351027,2.1201 14.781725,5.04529 24.149848,7.46287 -0.79681,5.46434 -1.27253,13.34156 -1.39648,18.16964 -2.49077,-1.3953 -7.576189,-4.57192 -9.11905,-5.0925 -4.181191,-1.41183 -9.577076,-0.28332 -10.987726,0.22074 -3.607486,1.28906 -7.642299,4.05135 -10.588728,7.77215 -0.814519,-0.3022 -3.135303,-1.07304 -4.800933,-2.33259 -0.936105,-0.70945 3.783376,-4.0962 4.403117,-4.75371 0.210122,-0.2231 -1.983173,0.13575 -4.431449,1.0813 -1.879292,0.72481 -3.946278,2.72096 -5.279018,4.25792 -6.132491,7.06742 -14.869078,25.11901 -16.350556,31.33886 -1.022278,3.49062 -1.056512,6.8514 -1.122618,8.55126 -2.918098,3.41625 -6.200958,7.9563 -9.77067,11.18132 -0.828683,0.10151 -3.142385,0.23255 -4.053701,-0.0272 -0.907774,-0.25734 -1.789577,-0.89243 -2.12955,-0.83577 -0.890068,0.31047 1.35989,1.58654 2.228709,1.88874 0.401356,0.1393 2.278288,0.30928 2.784705,0.38718 -0.133391,0.11333 -0.581967,0.42969 -0.716539,0.54656 -1.166295,0.99512 -1.619592,3.85302 -1.714029,7.25983 -1.468491,-0.0153 -2.317243,0.33053 -3.276957,0.73424 -0.763758,0.32227 -2.608817,1.17811 0.134572,1.07305 0.905413,-0.0354 1.953662,-0.14756 3.018437,0.0437 -0.265603,4.09974 0.264423,7.30705 0.651615,10.07877 -7.876032,5.79843 -15.379039,7.17839 -17.234722,7.40621 -1.387041,-3.93919 1.611329,-13.02048 3.209672,-23.85947 z M 72.35576,338.26141 c -5.61545,8.49224 -13.134982,20.17997 -21.431257,31.15708 0.348236,-2.20747 1.263093,-4.44208 1.684516,-6.04987 1.292604,-4.93551 7.467593,-16.94433 11.397345,-22.61644 0.934925,-1.34572 3.601584,-5.11021 4.279169,-4.5731 0.723622,0.48163 2.123648,1.25365 4.070227,2.08233 z M 31.130544,434.731 c -4.765519,-1.96666 -11.634617,-10.7658 -13.598903,-19.32768 1.289062,-0.26442 4.519981,-1.11199 6.980062,-2.08469 3.163633,-1.25011 6.928121,-3.16718 10.349095,-5.95543 0.500516,2.2476 5.56587,15.14294 5.902302,16.99863 -2.115385,3.53194 -4.910715,6.74279 -9.632556,10.36917 z m 33.562849,-21.85977 c 0.279768,-0.0307 1.473214,-0.314 1.907623,-0.42732 3.94746,2.11538 17.791899,18.54739 6.799452,41.19334 -9.292584,-1.58654 -18.345534,-5.19402 -23.376657,-12.1977 4.337012,-2.07407 8.483969,-5.58476 10.56394,-8.84519 4.586089,-7.19136 4.603795,-15.84886 4.105642,-19.72313 z M 178.60428,397.14041 c 4.32638,-10.35146 4.24848,-10.53088 8.26322,-13.81138 2.1083,-1.72347 0.18296,-2.59466 -5.45018,1.36933 -3.56145,2.50612 -8.5489,21.41709 -12.51761,20.82805 -3.23328,-0.47928 -13.82673,-8.94672 -34.01969,-13.77598 -11.02077,-2.63478 -33.42237,-23.95744 -40.609014,-28.39007 -0.959714,-0.59141 -4.034813,-1.97491 -8.505216,0.47927 -3.808166,2.09059 -16.828643,15.64936 -22.931623,24.93368 -0.996308,1.51571 -2.510839,3.29585 -1.94776,6.10535 0.583147,2.91337 1.856864,6.51141 2.012686,7.79103 0.173527,1.43072 0,4.61088 -7.314133,5.0748 -5.038206,0.31872 -5.463171,0.91603 -0.953812,1.7034 2.327868,0.40609 4.66754,-0.40489 4.826902,2.50612 0.10034,1.82381 -5.982573,9.13323 -3.188423,7.08158 0.911316,-0.66932 2.89685,-4.03127 6.144296,-5.54462 0.6162,4.93904 0.272686,19.64404 -13.930613,25.5369 -1.721111,-2.55806 -2.571042,-9.22884 -3.249807,-11.78926 -2.02449,-7.6364 -4.456238,-13.27781 -7.171297,-21.75352 -1.415372,-4.42083 -0.628005,-16.40486 0.472184,-17.5322 33.443623,-34.24869 34.055101,-50.72674 47.142865,-56.8132 3.364313,-1.5641 8.336411,-1.23003 10.376247,-0.3022 1.859225,0.8464 6.309558,3.97343 9.331538,5.5222 23.51713,12.0466 46.14184,10.43291 50.79049,13.68508 5.24714,3.66769 7.73319,8.53237 9.27016,10.0469 4.27563,4.21896 -4.34055,-11.58858 -7.69543,-13.10547 -7.20081,-3.25453 -26.944,-2.95233 -48.60192,-12.92486 -0.0685,-4.49519 0.0968,-8.60674 0.45094,-12.39602 14.66487,4.12807 30.16903,5.70752 45.30607,5.70752 3.80344,0 7.5821,-0.10034 11.3218,-0.28094 30.96701,-1.51926 58.98406,-8.75784 73.2393,-13.04055 -1.57001,2.58521 -2.81185,4.71004 -2.81185,4.71004 -3.07392,5.9991 -5.34041,13.25539 -7.52308,21.2589 -3.8542,0.46865 -12.24019,2.6041 -16.58074,7.48294 -1.80611,7.41448 0.68466,14.68258 1.68097,17.42007 l -26.52376,35.81161 c -1.9218,-0.73778 -6.82779,-3.11523 -9.10371,-3.5945 z m 32.63854,-24.08848 -23.28222,40.8947 c -0.13929,-0.157 -1.11907,-1.22532 -1.26782,-1.3717 -0.86645,-0.8582 -1.88401,-1.56056 -3.01017,-2.0658 l 27.56021,-37.4572 z m -48.85689,54.15599 c 2.94761,-0.81807 6.58579,-1.184 7.21734,-1.25128 -0.78619,0.93964 -3.48826,4.83633 -5.82675,8.98447 -0.33526,0.5926 -0.66342,1.18991 -0.98333,1.78132 -0.9007,-1.53696 -1.54287,-3.2203 -1.8852,-4.96974 -0.0496,-0.25379 -0.3742,-2.92636 -0.34351,-3.99586 0.59495,-0.19242 1.20289,-0.37775 1.82145,-0.54891 z m -25.28192,20.15282 c 1.53577,-3.55555 3.59096,-6.54447 5.94362,-9.06122 0.19477,2.71507 0.98568,5.37701 2.31724,7.74619 -2.73985,0.34469 -5.56587,0.77556 -8.26086,1.31503 z m 10.90038,-1.62314 c -1.11909,-1.70222 -1.89228,-3.61811 -2.28302,-5.61544 -0.26443,-1.35281 -0.38719,-2.77526 -0.26324,-4.15522 1.63021,-1.42836 3.35605,-2.66784 5.1173,-3.74915 0,0.0626 -0.004,0.12749 -0.004,0.19006 0,4.49755 1.2926,8.97032 3.70547,12.75842 -1.88874,0.14047 -4.02183,0.32699 -6.27296,0.57133 z m 10.72919,-0.92075 -1.66208,0.15817 c -0.36123,-0.49107 -0.71418,-0.98921 -1.03055,-1.51099 -1.28315,-2.11655 -2.16732,-4.46449 -2.64186,-6.89269 -0.34824,-1.78723 -0.50878,-3.64881 -0.36005,-5.4679 0.0106,-0.12749 0.009,-0.21602 0.001,-0.28803 0.1511,-0.0791 0.3022,-0.16291 0.4533,-0.23963 0.5619,-0.28686 2.35974,-1.12263 4.68642,-1.99026 0,0.005 0,0.009 0,0.0142 0.004,3.76095 1.15687,7.49947 3.32064,10.57693 -1.61959,3.14593 -2.767,5.64024 -2.767,5.64024 z m 20.98387,7.4794 c 0,0 -11.91793,-2.78472 -18.21333,-4.18356 2.43648,-7.67535 8.69292,-17.04467 11.47881,-20.64035 1.77068,1.50627 4.06077,2.41758 6.56926,2.41758 0.54418,0 1.43071,-0.10741 2.28065,-0.23963 0.29865,10.53561 -2.11539,22.64596 -2.11539,22.64596 z m -0.15936,-25.78245 c -3.73616,0 -6.76287,-3.02669 -6.76287,-6.75695 0,-3.72907 3.02671,-6.75695 6.76287,-6.75695 3.7338,0 6.76049,3.02788 6.76049,6.75695 0,3.73026 -3.02669,6.75695 -6.76049,6.75695 z m 22.96939,26.91569 c -4.96619,-0.40608 -14.38509,-3.17072 -18.46947,-5.17278 0.1747,-1.3717 0.5253,-4.1198 0.6764,-5.57649 l 17.67975,-4.97093 c -0.14165,5.31326 0.36712,13.20345 0.11332,15.7202 z M 185.01536,439.7869 c 0.0803,-0.89951 0.15464,-1.79548 0.2172,-2.67846 l 38.12651,-7.189 -38.34371,9.86746 z m 157.49112,51.54953 c 6.08173,21.88928 8.49931,46.2162 -3.79518,65.7658 -22.83365,-34.65595 -34.2428,-85.76752 -34.2428,-85.76752 0,0 -9.71282,-0.046 -10.26765,-0.0791 8.08144,39.59028 31.03431,78.44395 34.88969,95.78727 -37.30137,-7.47586 -56.77424,-55.95972 -62.57502,-82.85887 -1.1061,-5.13028 -1.87222,-9.23239 -2.01269,-12.35824 0,-0.0885 -8.41432,0.0826 -9.89698,0.13811 9.32565,49.22874 29.61539,73.33375 34.45056,90.86122 -53.68969,-9.67033 -73.28298,-97.4588 -76.47613,-128.02683 l 27.75026,-7.75563 c 0.40844,1.43781 3.00427,9.70575 10.48486,16.62207 2.27356,-7.7757 1.22295,-13.45253 1.22295,-13.45253 0,0 9.00691,-3.14592 15.47583,-10.0469 -8.74248,-3.05857 -18.21686,-2.06817 -18.21686,-2.06817 0,0 -3.2923,-6.60939 -8.01297,-11.23916 -2.68672,8.54182 -1.53341,17.20403 -1.36106,18.35144 l -27.88956,4.59199 c -0.13221,-0.5855 -0.18887,-1.75652 -0.24672,-2.34793 6.10416,-6.99424 15.20551,-16.68935 16.07433,-17.12494 20.60021,-6.4099 22.208,-25.29963 21.27426,-38.62585 2.73749,-5.16333 7.34955,-10.49665 10.94641,-14.86554 1.46614,-1.78131 6.01799,-5.28019 10.71976,-8.52528 4.98862,0.89716 11.0975,1.31622 16.131,1.11789 l 16.18528,88.33504 0.0177,0.0944 0.0224,0.0956 c 0.18887,0.78736 4.73128,19.42211 14.64243,30.52316 l 3.45638,3.87073 2.4471,-4.57664 c 2.78942,-5.21881 3.86837,-12.32165 4.18709,-18.75752 2.41995,6.23992 11.18369,29.14557 14.61529,42.32187 z m -92.94592,-52.65208 c -3.65942,-3.57443 -6.13249,-11.35011 -6.45948,-12.41843 l 5.848,-1.64675 -0.23373,-0.84403 -5.98375,0.97742 c -0.0814,-0.43913 -1.32684,-7.20435 -0.31046,-12.18824 1.39649,0.78618 5.47733,8.3364 5.47733,8.3364 0,0 9.10136,-1.48148 14.74986,0.42969 -4.89774,4.45388 -13.58238,7.12526 -13.58238,7.12526 0,0 0.84521,4.46331 0.49461,10.22868 z m 87.39421,4.92371 c -1.20171,0.0448 -3.26397,-0.0874 -4.73364,0.10033 -0.81452,0.57253 -2.16025,1.54876 -2.16025,1.54876 0,0 -1.17456,-1.63965 -2.09296,-3.57443 -0.0283,-1.12616 -0.0732,-2.17795 -0.12512,-3.13766 3.10224,0.17235 6.36504,-0.0732 9.33861,-0.95618 -0.0567,2.7611 -0.19949,4.93551 -0.22664,6.01918 z m 23.42033,135.30909 c 12.80209,-1.50863 17.22528,-4.91072 27.91907,-20.63092 14.40279,-21.17037 19.00541,-28.2366 16.28326,-35.43859 -1.30795,-3.46347 -6.06756,-9.11198 -10.01738,-13.89166 16.42847,7.48058 32.43669,14.06636 32.04714,21.78539 -0.0543,1.04471 -0.55482,2.82485 -0.88062,4.20126 -8.79443,11.70073 -23.3566,27.88602 -32.76486,47.62686 -4.01356,0.73424 -7.16303,0.81215 -10.32431,1.77777 -2.91574,-0.76967 -4.30514,-2.21455 -4.30514,-2.21455 0,0 -1.51453,-1.16866 -0.69882,0.93257 0.38364,0.97861 1.19579,1.74708 1.95601,2.29718 -6.28241,2.29363 -10.39986,4.96266 -13.52335,9.29376 -5.64024,-0.55363 -15.46167,-2.61944 -20.70055,-9.56999 3.78455,-3.19433 8.18295,-5.3652 15.00955,-6.16908 z m 63.51467,-35.4209 c -3.74678,10.89801 -10.81302,26.64771 -18.56038,34.82122 -2.64187,2.62652 -4.90718,3.12113 -7.83236,3.48944 7.49121,-15.49354 21.11372,-31.56669 26.39274,-38.31066 z m -87.3883,61.38394 c -0.5371,-2.39869 1.31032,-11.33124 6.85021,-17.82849 6.84903,7.80756 17.31499,8.96795 21.78068,9.18397 -2.38335,3.42689 -4.41139,7.81466 -5.7642,12.87647 -6.69911,2.31724 -22.26584,-1.55939 -22.86669,-4.23195 z m 47.4486,14.45709 c -2.88622,0.38365 -22.86079,-0.96443 -22.61762,-4.28271 0.4533,-6.19505 2.61827,-13.29552 8.10858,-19.23796 11.53901,8.41315 27.22969,11.81641 35.30404,9.82615 -1.17574,4.85406 -4.85052,11.57678 -20.795,13.69452 z m 42.75746,-154.42427 c -1.49564,1.76714 -3.31237,5.52337 1.28434,9.29258 6.34851,5.20819 33.92171,25.19338 35.95918,26.71145 1.10137,0.81688 1.79784,3.24627 0.93139,4.86823 -4.27091,8.00824 -12.39956,20.07372 -19.76799,35.36776 -6.20214,12.8682 -12.02417,28.01941 -14.40397,44.96256 -0.42969,3.06093 0.13929,7.8418 -0.798,9.35279 -2.12719,3.42687 -16.50047,-1.2265 -22.42639,-6.23756 -1.1958,-1.00929 -1.28434,-0.43794 -0.85583,0.0933 1.17102,1.45433 2.71624,3.57916 2.50258,5.19403 -0.13576,1.02936 -0.95027,1.77187 -2.91102,1.69514 -1.6432,-0.0661 -4.12807,-1.35162 -4.99334,-1.71403 -3.87192,-1.62431 -4.17883,-0.86764 -2.36093,-0.16998 2.36093,0.90659 6.36622,4.64038 6.03097,9.5452 -13.33212,2.07996 -30.00494,-6.95882 -33.29134,-10.17557 1.47794,-1.57592 3.36432,-2.56514 4.67227,-3.20142 9.97488,-4.85994 17.12139,-3.03614 28.26375,-6.86319 5.00634,-1.71993 22.94461,-30.36734 24.71767,-51.65695 1.6314,-19.56377 -52.9224,-22.75808 -76.14796,-62.80521 -23.61511,-17.67857 -3.27342,-42.45526 -19.68182,-57.58521 -2.00323,-1.84861 -3.00191,-1.19817 -1.84978,0.20422 4.6947,5.71461 5.59185,15.80636 5.62254,23.24916 -2.00089,0.65752 -4.12336,0.95736 -6.21749,1.05179 -1.10018,0.0496 -2.20392,0.0248 -3.30647,-0.0319 -0.14047,-1.79548 -0.27741,-2.94761 -0.3022,-3.14475 l -7.2976,-58.47291 c 0.29393,-4.40312 0.80389,-9.24774 1.4555,-14.1006 6.32491,4.81981 15.54902,11.63225 26.05158,18.70203 -1.71284,4.51526 -3.62873,9.18989 -5.7937,14.02268 -2.17087,4.84815 -1.51453,10.85198 -0.31636,15.98934 4.77024,-1.25836 10.12717,-5.3652 12.38775,-10.40576 1.87222,-4.17293 3.55791,-8.23135 5.10667,-12.19179 5.34512,3.35841 10.85079,6.63536 16.34348,9.64317 4.32639,2.36093 8.53709,4.53651 12.64508,6.51615 -1.3646,3.44577 -2.84136,6.97416 -4.46331,10.59581 -2.17087,4.84697 -1.51453,10.85197 -0.31637,15.98816 4.77024,-1.25837 10.12717,-5.3652 12.38776,-10.40459 1.65027,-3.68067 3.15655,-7.27163 4.55657,-10.78822 13.20463,5.29201 25.38226,8.19712 37.03105,8.22308 l 0.0968,0 c 7.23386,10e-4 14.22219,-1.19225 20.88234,-3.61338 -0.82396,4.11508 -1.74944,7.07332 -1.85449,7.3885 -7.07215,21.10545 -20.91422,34.66776 -29.5729,44.9059 z m 17.09661,-15.05324 c 10.23458,-13.35927 16.99863,-26.80353 19.01603,-42.66655 7.23268,-7.72967 18.79411,-17.20167 30.56803,-24.42964 1.09546,8.96207 -7.52899,19.4717 -17.99967,30.4488 -9.30202,9.75297 -20.03005,19.91554 -24.32928,31.94562 -2.9665,8.30218 -2.88741,20.07019 2.86852,28.05482 -5.44547,-4.17765 -9.75888,-12.41371 -10.12363,-23.35305 z m 44.6273,16.94198 c -3.17308,2.03983 -6.10888,4.24021 -7.85479,5.34984 -5.46198,3.47409 -10.48602,5.14562 -15.39438,5.02875 -4.73837,-5.59301 -5.44428,-10.62295 -4.03009,-14.11122 1.41301,-3.48826 5.6001,-6.90097 11.068,-9.32091 -3.28876,7.90201 2.38571,16.98211 16.21126,13.05354 z m 55.57017,-70.4735 c -11.66767,20.83396 -36.45852,39.97512 -55.13221,46.50188 -14.42524,5.04293 -25.14854,8.77555 -29.482,15.35071 -3.00782,4.56366 -3.66769,12.94611 2.74457,18.69022 -2.06346,-0.3742 -4.01593,-1.08601 -5.83266,-2.10003 -12.76905,-23.05794 1.64438,-41.18508 20.33816,-59.44445 17.3197,-16.91718 30.06396,-35.07029 10.24049,-46.38618 6.93756,-4.55895 16.5654,-8.69173 22.79586,-6.97299 12.81863,3.53903 13.21526,21.47966 4.96857,31.66231 -6.43352,7.94215 -16.96913,16.68581 -33.41057,24.19354 0,0 19.66528,-2.4707 38.35433,-16.17821 11.35249,-8.32697 18.95465,-20.53175 12.67106,-36.79376 -0.55481,-1.28788 -1.6125,-3.28995 -1.4921,-2.72805 1.23949,6.82896 6.54566,22.36264 -10.52735,35.85295 -12.23901,9.67033 -22.29535,13.07122 -22.29535,13.07122 0,0 0.78265,-0.36003 1.85214,-0.86055 4.60262,-2.5734 13.74646,-10.09058 18.07167,-16.08613 12.26381,-17.01043 4.81627,-36.38179 -12.39365,-35.63101 -6.6578,0.28921 -12.02063,2.0658 -22.13482,8.77907 -13.53515,8.98331 -22.33312,2.87325 -33.29606,-4.78558 3.12113,5.15035 7.25039,20.07491 9.10135,33.26065 0.085,0.60676 0.14991,1.22414 0.1995,1.84742 -6.97535,3.63582 -14.13602,5.35221 -22.18675,5.36401 -9.41299,0.0283 -20.14456,-2.47188 -32.41545,-7.40975 2.40696,-7.07804 4.32757,-13.73819 5.8421,-19.90138 4.07378,-16.58074 6.34026,-30.74745 7.29407,-39.35419 0.27622,0.20895 0.42023,0.32228 0.42023,0.32228 12.51525,8.71651 21.78187,16.6433 29.80191,17.10722 18.64655,1.0813 31.57968,-18.94285 58.10462,-23.50296 18.10354,-3.10934 30.93986,1.812 37.10069,10.96529 10.7233,15.93386 8.07553,41.99252 0.69765,55.16645 z M 106.00006,212.84223 c -0.40017,0.25497 -1.27962,1.1415 -1.17102,1.62431 1.32802,-1.17574 3.10816,-1.43427 3.92976,-1.41183 0.51468,0.0142 1.16866,0.53356 1.09311,1.52516 -0.34706,-0.20069 -0.95264,-0.23256 -1.4744,-0.1275 -2.1083,0.42378 -5.06063,2.22517 -6.21158,4.01121 -0.8216,1.27726 -1.09665,3.55554 0.30337,4.56366 1.16276,0.83813 4.25675,0.99394 7.06506,-2.87325 2.38571,-3.28876 3.17543,-6.63536 1.55349,-8.00116 -1.14741,-0.96443 -2.92991,-0.68349 -5.08779,0.6894 z m 1.03054,7.4546 c -1.11789,1.04234 -2.368,1.27962 -2.87088,0.71181 -0.93964,-1.06005 0.20304,-2.9476 1.91943,-4.03481 1.42836,-0.90541 3.11051,-1.38704 3.3407,-0.97152 0.5501,0.99395 -1.32683,3.3053 -2.38925,4.29452 z m 130.58135,60.62372 c -20.87055,-10.59699 -52.69812,-3.60985 -69.95172,4.89065 27.39731,-7.68362 51.53063,-9.54757 69.95172,-4.89065 z m 161.09506,184.78809 c 25.09422,-0.43559 26.2735,-16.20182 36.81265,-24.81092 -8.4273,-0.25144 -11.71843,19.83173 -36.81265,24.81092 z m -249.0004,-81.59461 c -8.64216,-1.68215 -12.91306,-1.00929 -28.68992,-12.33344 -3.15418,-2.26531 -7.6057,-4.61206 -8.24314,-4.70178 -3.82471,-0.52766 3.30646,3.22148 16.17938,12.96028 4.906,3.71255 17.60421,6.05458 18.88736,6.28948 1.28317,0.23256 3.9758,-1.80373 1.86632,-2.21454 z m 295.71947,121.46229 c 8.07671,1.60189 7.78633,4.68761 9.29967,5.85391 0.58079,-0.46511 0.0885,-5.88342 -7.05206,-7.97874 -3.81761,-6.49371 -10.37626,-11.70662 -16.20536,-15.08864 0,1.51689 12.50225,11.09869 13.95775,17.21347 z M 139.90289,170.96893 c 0.21248,-0.63509 0.45329,-2.13426 0.857,-2.18031 0.27151,-0.0307 1.76243,1.65736 4.77379,1.65736 3.01135,0 4.47513,-1.16156 5.12555,-1.76241 0.82396,-0.76022 1.583,-2.05401 1.73174,-3.17545 0.86292,0.13576 2.55452,0.026 3.38084,-0.11332 2.29127,-0.38601 3.28995,-1.65618 2.64541,-1.55939 -0.10506,0.0154 -0.37067,0.006 -0.93492,-0.004 -1.16866,-0.0189 -3.16836,-0.098 -4.45387,-0.41552 -1.23713,-0.30455 -2.3869,-1.24656 -3.62638,-1.65972 -1.46023,-0.48517 -3.3171,-0.66932 -4.52589,-0.46983 0.53593,-1.08956 1.86985,-2.94406 2.12838,-3.42569 0.26442,-0.49107 1.10963,-2.06934 -0.46747,-0.80625 -0.94909,0.75785 -2.29482,1.98317 -3.89906,3.57089 -1.60542,1.58889 -2.53917,2.61118 -3.21321,4.17883 -0.1511,0.63863 -0.0944,1.61605 -0.16054,3.14238 -0.0791,1.75653 -0.26797,4.04308 -0.21957,4.08203 0.15936,0.12986 0.72244,-0.65161 0.8582,-1.06005 z m 6.27414,-7.36371 c 1.92769,-0.12277 3.52839,0.74487 3.62401,2.00088 0.0933,1.25483 -1.35635,2.59938 -3.2864,2.72214 -1.92769,0.12277 -3.56381,-0.9727 -3.65943,-2.22871 -0.0944,-1.25483 1.39177,-2.37272 3.32182,-2.49431 z"
       id="path14" />
    <path
       inkscape:connector-curvature="0"
       d="m 338.83879,280.5617 c 0.63508,-1.54287 1.22649,-3.64527 1.22886,-6.13251 0,-0.26559 -0.005,-0.53001 -0.0189,-0.80035 -0.37538,-7.55612 -2.52736,-20.02296 -4.80683,-33.22051 -0.60085,-3.47882 -1.21352,-7.02138 -1.80492,-10.54978 l -0.1936,-1.15212 -1.16039,0.157 c -2.76937,0.37539 -5.48324,0.72599 -8.10032,1.06477 -9.67033,1.2513 -18.02209,2.33024 -22.99418,3.85067 -0.86882,0.26324 -1.7341,0.5985 -2.56633,1.00102 -0.25025,0.12041 -0.48753,0.24318 -0.71418,0.36595 -0.35295,0.19123 -0.67877,0.38246 -0.97388,0.56898 -0.007,-0.30692 -0.0165,-0.63744 -0.0342,-0.99631 -0.0142,-0.3258 -0.026,-0.60085 -0.0437,-0.8877 -0.11805,-1.98672 -0.34587,-4.08912 -0.6823,-6.24345 -0.36712,-2.35739 -0.83931,-4.66873 -1.40593,-6.86675 l -0.19359,-0.73542 c -0.10507,-0.39074 -0.20541,-0.74842 -0.30103,-1.07423 1.08603,0.25263 2.50966,0.46511 4.21897,0.46511 l 0.45684,-0.005 c 5.51157,-0.12513 14.23517,-1.68216 24.33519,-3.48826 2.23225,-0.40017 4.51644,-0.80744 6.82542,-1.21115 l 1.15213,-0.20187 -0.16408,-1.16039 c -0.80271,-5.62725 -1.85923,-13.16803 -2.53918,-18.11888 l -0.17116,-1.24893 -1.23949,0.2231 c -10.10946,1.82264 -18.41871,3.74089 -22.79468,5.2625 -0.47101,0.16173 -0.91014,0.34116 -1.31739,0.52766 -0.21604,0.098 -0.43206,0.20304 -0.64336,0.31164 -0.39427,0.20304 -0.75314,0.41199 -1.07421,0.61502 -0.0142,-0.32108 -0.0342,-0.67403 -0.059,-1.05769 l -0.0614,-0.81334 c -0.14639,-1.9383 -0.39664,-4.04543 -0.73779,-6.26116 -0.37066,-2.36681 -0.82396,-4.68997 -1.34691,-6.90805 l -0.15699,-0.65043 c -0.10507,-0.42968 -0.20659,-0.8216 -0.29984,-1.1722 0.90305,0.20304 2.04102,0.37302 3.38083,0.38955 l 0.5737,0.002 c 4.97564,0 13.73348,-0.72363 22.85726,-1.88402 l 1.24775,-0.15936 -0.20777,-1.24067 c -0.58669,-3.48117 -1.4921,-7.7084 -2.30662,-10.77052 -0.44621,-1.66799 -1.14976,-3.24509 -2.09177,-4.68761 -0.27032,-0.40961 -0.54065,-0.78264 -0.80507,-1.12143 -0.11569,-0.14874 -0.23256,-0.29157 -0.34588,-0.42851 2.50967,-0.0295 6.01563,-0.1995 9.73644,-0.7732 3.88371,-0.60321 7.39913,-1.56057 9.69748,-2.26648 -0.0826,0.22546 -0.16173,0.46628 -0.23963,0.71653 -0.1086,0.3506 -0.2113,0.72835 -0.30456,1.12853 -0.30692,1.29496 -0.46392,2.65603 -0.46628,4.03953 0,0.35178 0.009,0.70946 0.0295,1.08012 0.17471,3.08336 0.76258,7.61161 1.22413,10.86969 l 0.17943,1.25364 1.24067,-0.23491 c 8.26677,-1.55821 16.16169,-3.44694 20.60021,-4.92843 1.26309,-0.4226 2.29955,-0.9302 3.09753,-1.4012 0.10153,1.9572 0.34351,5.05827 0.93493,8.87352 0.55245,3.55909 1.18045,6.25998 1.64556,8.01414 -0.36595,-0.098 -0.7673,-0.1865 -1.20171,-0.26205 -0.23137,-0.0402 -0.46865,-0.0744 -0.7189,-0.10389 -0.44149,-0.0555 -0.91722,-0.0933 -1.41773,-0.10505 -0.3506,-0.007 -0.71891,-0.0118 -1.10137,-0.0118 -4.51409,0 -11.58859,0.56662 -19.91555,1.59362 l -1.26073,0.15464 0.21602,1.25129 c 0.86056,4.97564 2.13663,12.49163 3.07392,18.02916 l 0.1936,1.14978 1.15802,-0.15464 c 1.62668,-0.21248 3.24627,-0.42379 4.84698,-0.63273 9.31029,-1.20879 18.1059,-2.35266 23.38256,-3.90969 1.82971,-0.543 3.27459,-1.24657 4.32521,-1.86984 0.046,1.95484 0.229,5.04174 0.82396,8.85345 0.54891,3.53784 1.22059,6.22456 1.74118,7.97991 -0.33644,-0.0873 -0.70238,-0.17117 -1.0943,-0.24672 -0.25025,-0.0496 -0.51703,-0.0933 -0.79681,-0.13575 -0.83221,-0.12041 -1.68334,-0.18061 -2.52736,-0.18061 l -0.25262,0.005 c -5.27902,0.0661 -13.61307,1.59362 -22.43583,3.21321 -1.90526,0.34824 -3.84004,0.70473 -5.79016,1.05296 l -1.14858,0.20541 0.16525,1.15567 c 0.71301,4.97209 1.37643,9.98905 2.01388,14.84192 1.51334,11.50596 2.94642,22.37091 4.64156,28.93072 0.72009,2.78708 2.00443,4.8694 3.1353,6.27769 -0.16289,0.002 -0.3317,0.005 -0.50522,0.007 -0.42969,0.007 -0.89361,0.0201 -1.37879,0.039 -2.78824,0.098 -5.45844,0.34587 -7.93977,0.73189 -2.44828,0.37775 -5.04765,0.94673 -7.7273,1.68688 -0.49224,0.13811 -0.95853,0.27268 -1.39058,0.40253 -0.13929,0.0425 -0.27741,0.0838 -0.40961,0.12278 l 0,0 z"
       style="fill:#eed717"
       id="path16" />
    <path
       inkscape:connector-curvature="0"
       d="m 342.51355,159.03093 c 0,0 -0.78854,1.1238 -1.40474,3.11878 -0.10034,0.32699 -0.19714,0.6764 -0.28331,1.04707 -0.2538,1.07894 -0.43205,2.3444 -0.43441,3.76921 0,0.32698 0.009,0.66343 0.0283,1.00811 0.15701,2.78708 0.67168,6.95291 1.21233,10.77053 8.08262,-1.52516 15.96337,-3.39264 20.43967,-4.88593 3.04323,-1.01637 4.62268,-2.55806 4.62268,-2.55806 0,0 0,0.0142 0,0.0437 0,0.002 0,0.005 0,0.007 0,0.002 0,0.004 0,0.006 0,0.53358 0.0319,4.75844 0.98923,10.93343 1.02228,6.56454 2.29953,10.17321 2.29953,10.17321 0,0 -1.23948,-0.6953 -3.25806,-1.04353 -0.21013,-0.0366 -0.42732,-0.0696 -0.65397,-0.0968 -0.40844,-0.0507 -0.84286,-0.0838 -1.30088,-0.0956 -0.34233,-0.007 -0.70118,-0.0118 -1.07657,-0.0118 -4.78323,0 -12.21305,0.65279 -19.76563,1.58418 0.85937,4.978 2.13662,12.49517 3.07155,18.03389 11.11758,-1.47439 21.9731,-2.71387 28.04538,-4.507 3.87781,-1.14505 5.88341,-3.05975 5.88341,-3.05975 0,0 -0.0201,0.399 -0.0201,1.13679 -10e-4,1.71403 0.10505,5.25777 0.82396,9.88281 1.01992,6.56453 2.48486,10.14605 2.48486,10.14605 0,0 -1.22059,-0.64807 -3.25924,-1.03998 -0.2361,-0.046 -0.48281,-0.0885 -0.74015,-0.12631 -0.71064,-0.1027 -1.50155,-0.16881 -2.3562,-0.16881 -0.0697,0 -0.14048,0.001 -0.21013,0.001 -6.31782,0.0814 -16.99154,2.27002 -28.056,4.24965 2.4353,16.95141 4.25321,34.45646 6.62829,43.64279 1.36343,5.26723 4.90127,7.82528 4.90127,7.82528 0,0 -0.8157,-0.0401 -2.17913,-0.0401 -0.37538,0 -0.7909,0.004 -1.24066,0.0118 -0.42143,0.007 -0.87354,0.0177 -1.35163,0.0354 -2.18857,0.0779 -4.93195,0.27386 -7.80048,0.71889 -2.82839,0.43677 -5.48323,1.07423 -7.58918,1.65973 -0.48517,0.13575 -0.94201,0.26678 -1.36579,0.39427 -2.00443,0.5985 -3.25099,1.06242 -3.25099,1.06242 0,0 2.50376,-3.31709 2.51202,-8.23253 0,-0.24318 -0.006,-0.48872 -0.0189,-0.73779 -0.46746,-9.45076 -3.75032,-26.68431 -6.59405,-43.62746 -12.95555,1.75535 -24.70114,2.97831 -30.90328,4.87177 -0.90068,0.27505 -1.69867,0.59967 -2.39514,0.93492 -0.23609,0.11332 -0.45803,0.22783 -0.67051,0.34234 -1.84388,0.99867 -2.78824,1.98199 -2.78824,1.98199 0,0 0.046,-0.55009 0.046,-1.59245 0,-0.49815 -0.0106,-1.10963 -0.0413,-1.82852 -0.0118,-0.27269 -0.026,-0.55954 -0.0437,-0.86174 -0.0956,-1.63022 -0.29039,-3.69367 -0.6705,-6.13604 -0.41906,-2.69853 -0.92784,-4.98862 -1.38114,-6.75105 -0.0649,-0.25262 -0.12867,-0.49462 -0.19123,-0.72598 -0.56545,-2.09178 -1.00576,-3.26869 -1.00576,-3.26869 0,0 2.26058,1.13914 6.09118,1.13914 0.14638,0 0.29512,-0.001 0.44503,-0.005 6.62829,-0.14991 18.46476,-2.50021 30.9623,-4.68052 -0.80154,-5.63198 -1.85923,-13.17276 -2.53799,-18.12715 -9.38349,1.69278 -18.02563,3.62048 -22.61172,5.21292 -0.43322,0.14991 -0.83576,0.31399 -1.2088,0.48517 -0.20894,0.0944 -0.40607,0.19005 -0.59494,0.2892 -1.84034,0.95145 -2.78825,1.98083 -2.78825,1.98083 0,0 0.006,-0.14993 0.006,-0.44386 0,-0.53475 -0.0177,-1.54287 -0.11096,-2.97476 -0.0177,-0.25262 -0.0366,-0.51941 -0.0578,-0.79917 -0.1275,-1.6314 -0.34825,-3.70665 -0.73071,-6.17145 -0.42496,-2.72451 -0.90778,-5.03821 -1.32801,-6.8148 -0.0543,-0.22901 -0.10743,-0.44857 -0.15937,-0.65987 -0.51822,-2.10831 -0.90659,-3.29821 -0.90659,-3.29821 0,0 1.92769,0.99866 5.18103,1.03762 0.18062,0.002 0.36831,0.004 0.55954,0.004 5.07008,0 13.78661,-0.73897 22.7038,-1.87457 -0.6469,-3.84477 -1.56529,-7.96576 -2.28065,-10.65839 -0.46509,-1.74235 -1.184,-3.18723 -1.93831,-4.34172 -0.24673,-0.37658 -0.49698,-0.72245 -0.74251,-1.03645 -1.26309,-1.61959 -2.41995,-2.41876 -2.41995,-2.41876 0,0 0.81689,0.0413 2.18032,0.0413 2.32549,0 6.23873,-0.11922 10.39749,-0.76376 6.59287,-1.02227 12.20241,-3.11878 12.20241,-3.11878 m -4.08911,3.82233 c -2.15552,0.59496 -4.85051,1.23713 -7.74264,1.6857 -2.74457,0.42497 -5.37936,0.63156 -7.59626,0.7248 0.93256,1.48503 1.63257,3.09045 2.08469,4.78205 0.82396,3.10343 1.73881,7.37316 2.32905,10.88031 l 0.41788,2.48132 -2.49667,0.31755 c -9.30911,1.18636 -17.90995,1.89464 -23.00954,1.89464 -0.20185,0 -0.40017,-10e-4 -0.5914,-0.004 -0.6221,-0.008 -1.20289,-0.0461 -1.74236,-0.10389 l 0.0106,0.0437 c 0.53239,2.2535 0.9904,4.60851 1.36461,7.00486 0.34234,2.20863 0.59614,4.34527 0.75195,6.35322 0.0472,-0.0212 0.0933,-0.0425 0.14049,-0.0637 0.45092,-0.20659 0.92901,-0.399 1.413,-0.56663 4.43381,-1.53932 12.80799,-3.47409 22.97531,-5.30734 l 2.48132,-0.4474 0.34233,2.49903 c 0.62329,4.55068 1.66681,11.99939 2.53682,18.11299 l 0.33051,2.3196 -2.30897,0.40254 c -2.3078,0.40371 -4.59435,0.81215 -6.82897,1.21115 -10.14486,1.81319 -18.90506,3.37848 -24.49455,3.50479 -0.16526,0.005 -0.33289,0.006 -0.49933,0.006 -0.93138,0 -1.78368,-0.0602 -2.55098,-0.15464 0.57607,2.23579 1.05652,4.58254 1.42718,6.97298 0.33998,2.18503 0.57252,4.3075 0.69175,6.30483 0.0142,-0.006 0.0283,-0.013 0.0425,-0.0201 0.87117,-0.41907 1.79193,-0.7791 2.73394,-1.06595 5.07363,-1.54995 13.48086,-2.63715 23.2173,-3.89671 2.60527,-0.33643 5.30853,-0.68584 8.06727,-1.06005 l 2.32078,-0.31399 0.38719,2.31015 c 0.59495,3.54256 1.20879,7.09811 1.81201,10.59227 2.28182,13.21407 4.43617,25.69627 4.81392,33.31614 0.0142,0.2833 0.0212,0.57252 0.0212,0.85701 -0.004,1.60543 -0.2361,3.06683 -0.57017,4.33938 2.57577,-0.7012 5.08897,-1.24421 7.47586,-1.61252 2.43646,-0.37775 5.03821,-0.62328 7.73674,-0.73306 -0.79563,-1.30796 -1.54169,-2.91456 -2.0363,-4.82337 -1.71284,-6.62356 -3.14593,-17.51095 -4.66281,-29.03695 -0.641,-4.86115 -1.30205,-9.88873 -2.01742,-14.86791 l -0.33289,-2.31251 2.29954,-0.41081 c 1.95484,-0.34941 3.89788,-0.70591 5.80551,-1.05532 8.86643,-1.62669 17.2418,-3.16247 22.64477,-3.23211 l 0.24199,-0.001 c 0.90896,0 1.81791,0.0661 2.70325,0.19477 0.0118,10e-4 0.0224,0.004 0.0331,0.005 -0.41788,-1.64675 -0.86763,-3.73143 -1.25482,-6.22102 -0.43323,-2.78943 -0.65044,-5.2023 -0.75668,-7.08277 -0.82632,0.38129 -1.77777,0.75195 -2.85671,1.0695 -5.37228,1.58654 -14.22337,2.73748 -23.59504,3.95454 -1.59127,0.20658 -3.20141,0.41552 -4.81746,0.63036 l -2.31252,0.30692 -0.38955,-2.30071 c -0.93493,-5.53637 -2.21101,-13.05 -3.06921,-18.02563 l -0.43204,-2.50022 2.51792,-0.31045 c 8.37537,-1.03292 15.50062,-1.60189 20.06193,-1.60189 0.39191,0 0.76966,0.005 1.12615,0.0118 0.52885,0.0142 1.04353,0.052 1.54641,0.11333 0.046,0.006 0.0921,0.0118 0.13929,0.0177 -0.38719,-1.65147 -0.81806,-3.75504 -1.21115,-6.27768 -0.43677,-2.81895 -0.68585,-5.25777 -0.82868,-7.14415 -0.4958,0.22192 -1.0388,0.43559 -1.62786,0.63154 -4.48221,1.49564 -12.43614,3.39973 -20.75839,4.96856 l -2.48605,0.46982 -0.35533,-2.50611 c -0.46509,-3.28168 -1.05532,-7.85006 -1.23121,-10.97356 -0.0224,-0.38955 -0.0331,-0.77203 -0.0331,-1.14387 0.002,-1.39649 0.15347,-2.77762 0.45094,-4.11273 l 0,0 z"
       id="path18" />
  </g>
</svg>
